STARTFONT 2.1
FONT -Monotype-Arial-Regular-R-Normal--50-360-100-100-P-253-iso8859-9
SIZE 36 100 100
FONTBOUNDINGBOX 65 57 -13 -11

STARTPROPERTIES 24
FOUNDRY "Monotype"
FAMILY_NAME "Arial"
WEIGHT_NAME "Regular"
SLANT "R"
SETWIDTH_NAME "Normal"
ADD_STYLE_NAME ""
PIXEL_SIZE 50
POINT_SIZE 360
RESOLUTION_X 100
RESOLUTION_Y 100
SPACING "P"
AVERAGE_WIDTH 253
CHARSET_REGISTRY "iso8859"
CHARSET_ENCODING "9"
FACE_NAME "Arial ISO Latin5"
_DEC_DEVICE_FONTNAMES "PS=arial-lat5"
COPYRIGHT "Copyright (c) 1993 Monotype Typography Ltd."
CAP_HEIGHT 42
X_HEIGHT 30
WEIGHT 10
QUAD_WIDTH 31
DEFAULT_CHAR 160
FONT_DESCENT 12
FONT_ASCENT 47
ENDPROPERTIES

CHARS 191

STARTCHAR space
ENCODING 32
SWIDTH 333 0
DWIDTH 17 0
BBX 0 0 0 0
BITMAP
ENDCHAR

STARTCHAR exclam
ENCODING 33
SWIDTH 278 0
DWIDTH 14 0
BBX 9 36 2 0
BITMAP
3E00
3E00
3E00
3E00
3E00
3E00
3E00
3E00
3E00
3E00
3E00
3E00
3E00
3E00
3E00
3E00
3E00
3E00
1E00
1E00
1C00
1C00
1C00
1C00
1C00
1C00
1C00
0000
0000
0000
0000
3E00
3E00
3E00
3E00
3E00
ENDCHAR

STARTCHAR quotedbl
ENCODING 34
SWIDTH 355 0
DWIDTH 18 0
BBX 16 13 1 23
BITMAP
7C7C
7C7C
7C7C
7C7C
7C7C
7C7C
7C7C
7C7C
7C7C
3838
3838
3838
3838
ENDCHAR

STARTCHAR numbersign
ENCODING 35
SWIDTH 556 0
DWIDTH 28 0
BBX 30 36 -1 0
BITMAP
001E03C0
001C03C0
001C03C0
003C0380
003C0380
003C0780
00380780
00380780
00780700
00780700
3FFFFFF0
3FFFFFF0
3FFFFFF0
3FFFFFF0
00F00E00
00F01E00
00E01E00
01E01E00
01E01C00
01E03C00
01E03C00
01C03C00
3FFFFFF0
3FFFFFF0
3FFFFFF0
3FFFFFF0
03807800
07807000
07807000
0780F000
0700F000
0700F000
0F00E000
0F00E000
0F01E000
0E01E000
ENDCHAR

STARTCHAR dollar
ENCODING 36
SWIDTH 556 0
DWIDTH 28 0
BBX 27 44 0 -5
BITMAP
000E0000
000E0000
007FC000
01FFF000
03FFFC00
07FFFE00
0FCE7E00
1F0E3F00
1F0E1F00
1E0E0F80
3E0E0F80
3E0E0000
3E0E0000
3E0E0000
1E0E0000
1F0E0000
1F8E0000
0FEE0000
07FF0000
03FFE000
00FFF800
003FFE00
000FFF00
000E7F00
000E1F80
000E0F80
000E07C0
000E07C0
040E07C0
3C0E07C0
3E0E07C0
3E0E0780
3E0E0F80
1F0E0F80
1F8E1F00
0FCE7F00
07FFFE00
03FFF800
01FFF000
001F0000
000E0000
000E0000
000E0000
000E0000
ENDCHAR

STARTCHAR percent
ENCODING 37
SWIDTH 889 0
DWIDTH 44 0
BBX 40 38 2 -1
BITMAP
03E0000000
0FF8000E00
1FFC001E00
1E3E001C00
3C1E003C00
380E003800
780F007800
780F007000
780F00F000
780F00E000
780F01E000
780F01C000
780F03C000
380E038000
3C1E078000
1E3C070000
1FFC0F0000
0FF80E0000
03E01E0000
00003C07C0
00003C1FF0
0000783FF8
0000787C7C
0000F0783C
0000E0701C
0001E0F01E
0001C0F01E
0003C0F01E
000380F01E
000780F01E
000700F01E
000F00F01E
000E00701C
001E00783C
001C003C78
003C003FF8
0038001FF0
00780007C0
ENDCHAR

STARTCHAR ampersand
ENCODING 38
SWIDTH 667 0
DWIDTH 33 0
BBX 33 37 1 -1
BITMAP
000F800000
007FE00000
00FFF80000
01FFF80000
03F0FC0000
03E03C0000
03C03E0000
07C03E0000
07C03E0000
03C03E0000
03E03C0000
03F07C0000
01F9F80000
00FBF00000
00FFE00000
007FC00000
00FF000000
01FF800000
07FFC00000
0FEFC00000
1F87E0F000
1F03F0F000
3E01F9F000
3E00FDF000
7C007DE000
7C007FE000
7C003FE000
7C001FC000
7C000FC000
3E001FE000
3E003FF000
1F007FF800
1FC1FDFC00
0FFFF8FE00
07FFF07C00
01FFC03C00
003F001800
ENDCHAR

STARTCHAR quoteright
ENCODING 39
SWIDTH 222 0
DWIDTH 11 0
BBX 8 11 1 25
BITMAP
3E
3E
3E
3E
3E
0E
0E
0E
0C
1C
38
ENDCHAR

STARTCHAR parenleft
ENCODING 40
SWIDTH 333 0
DWIDTH 17 0
BBX 15 46 2 -10
BITMAP
0078
0070
00E0
01E0
01C0
03C0
0380
0780
0780
0F00
0F00
1E00
1E00
1E00
3E00
3C00
3C00
3C00
3C00
3C00
7C00
7C00
7C00
7C00
7C00
7C00
7C00
3C00
3C00
3C00
3E00
3E00
1E00
1E00
1F00
0F00
0F00
0780
0780
0780
03C0
01C0
01E0
00E0
00F0
0078
ENDCHAR

STARTCHAR parenright
ENCODING 41
SWIDTH 333 0
DWIDTH 17 0
BBX 15 46 0 -10
BITMAP
3C00
1E00
0E00
0F00
0700
0780
03C0
03C0
01E0
01E0
01E0
00F0
00F0
00F0
00F8
0078
0078
0078
007C
007C
007C
007C
007C
007C
007C
007C
007C
007C
0078
0078
0078
00F8
00F0
00F0
00F0
01E0
01E0
03E0
03C0
03C0
0780
0780
0F00
0E00
1E00
1C00
ENDCHAR

STARTCHAR asterisk
ENCODING 42
SWIDTH 389 0
DWIDTH 19 0
BBX 19 15 0 21
BITMAP
00F000
00E000
00E000
00E080
3CE780
3FFF80
3FFFC0
07FE00
01F000
03F800
03BC00
079E00
0F1F00
070E00
020400
ENDCHAR

STARTCHAR plus
ENCODING 43
SWIDTH 584 0
DWIDTH 29 0
BBX 26 24 2 6
BITMAP
001E0000
001E0000
001E0000
001E0000
001E0000
001E0000
001E0000
001E0000
001E0000
001E0000
7FFFFF80
7FFFFF80
7FFFFF80
7FFFFF80
001E0000
001E0000
001E0000
001E0000
001E0000
001E0000
001E0000
001E0000
001E0000
001E0000
ENDCHAR

STARTCHAR comma
ENCODING 44
SWIDTH 278 0
DWIDTH 14 0
BBX 9 12 2 -7
BITMAP
3E00
3E00
3E00
3E00
3E00
0600
0E00
0E00
0C00
1C00
3800
1000
ENDCHAR

STARTCHAR minus
ENCODING 45
SWIDTH 584 0
DWIDTH 29 0
BBX 27 4 1 16
BITMAP
3FFFFF80
3FFFFF80
3FFFFF80
3FFFFF80
ENDCHAR

STARTCHAR period
ENCODING 46
SWIDTH 278 0
DWIDTH 14 0
BBX 8 5 3 0
BITMAP
7C
7C
7C
7C
7C
ENDCHAR

STARTCHAR slash
ENCODING 47
SWIDTH 278 0
DWIDTH 14 0
BBX 16 37 -1 -1
BITMAP
001E
001C
001C
003C
003C
0038
0078
0078
0070
0070
00F0
00F0
00E0
00E0
01E0
01C0
01C0
03C0
03C0
0380
0380
0780
0780
0700
0F00
0F00
0E00
0E00
1E00
1E00
1C00
3C00
3C00
3800
3800
7800
7800
ENDCHAR

STARTCHAR zero
ENCODING 48
SWIDTH 556 0
DWIDTH 28 0
BBX 26 37 1 -1
BITMAP
003F0000
00FFE000
03FFF000
07FFF800
07C0FC00
0F807C00
1F003E00
1E001E00
1E001F00
3E001F00
3E000F00
3C000F00
3C000F00
3C000F80
7C000F80
7C000F80
7C000F80
7C000F80
7C000F80
7C000F80
7C000F80
7C000F80
7C000F80
3C000F00
3C000F00
3C000F00
3E000F00
3E001F00
1E001E00
1F001E00
1F003E00
0F807C00
0FC0FC00
07FFF800
03FFF000
00FFC000
003F0000
ENDCHAR

STARTCHAR one
ENCODING 49
SWIDTH 556 0
DWIDTH 28 0
BBX 16 36 5 0
BITMAP
001C
001C
003C
007C
00FC
01FC
07FC
0FFC
3FBC
7F3C
7E3C
783C
603C
003C
003C
003C
003C
003C
003C
003C
003C
003C
003C
003C
003C
003C
003C
003C
003C
003C
003C
003C
003C
003C
003C
003C
ENDCHAR

STARTCHAR two
ENCODING 50
SWIDTH 556 0
DWIDTH 28 0
BBX 26 36 0 0
BITMAP
003F8000
01FFF000
03FFF800
07FFFC00
0FC07E00
1F803F00
1F001F00
1E000F00
3E000F80
3E000F80
3E000F80
00000F80
00000F00
00001F00
00001F00
00003E00
00007E00
0000FC00
0001F800
0003F000
0007E000
000FC000
001F8000
003F0000
00FE0000
01F80000
03F00000
07E00000
0FC00000
0F800000
1F000000
3F000000
3FFFFF80
7FFFFF80
7FFFFF80
7FFFFF80
ENDCHAR

STARTCHAR three
ENCODING 51
SWIDTH 556 0
DWIDTH 28 0
BBX 26 37 1 -1
BITMAP
007E0000
01FFC000
07FFE000
0FFFF800
0FC0F800
1F007C00
3E003C00
3E003E00
3C003E00
3C003E00
00003E00
00003C00
00007C00
00007C00
0001F800
003FF000
003FC000
003FF000
003FFC00
00007E00
00003E00
00001F00
00001F00
00000F80
00000F80
00000F80
1C000F80
3C000F80
3E000F00
3E001F00
3F001F00
1F003E00
0FC0FC00
0FFFFC00
03FFF000
01FFE000
003F0000
ENDCHAR

STARTCHAR four
ENCODING 52
SWIDTH 556 0
DWIDTH 28 0
BBX 28 36 -1 0
BITMAP
00007800
00007800
0000F800
0001F800
0003F800
0003F800
0007F800
000F7800
000F7800
001E7800
003C7800
007C7800
00787800
00F07800
01F07800
01E07800
03C07800
07807800
07807800
0F007800
1E007800
3E007800
3C007800
7FFFFFC0
7FFFFFC0
7FFFFFC0
7FFFFFC0
00007800
00007800
00007800
00007800
00007800
00007800
00007800
00007800
00007800
ENDCHAR

STARTCHAR five
ENCODING 53
SWIDTH 556 0
DWIDTH 28 0
BBX 26 36 1 -1
BITMAP
07FFFE00
07FFFE00
07FFFE00
07FFFE00
07800000
0F800000
0F000000
0F000000
0F000000
0F000000
1F000000
1E1F0000
1EFFE000
1FFFF800
1FFFFC00
3FC0FE00
3F007E00
3E003F00
00001F00
00001F80
00000F80
00000F80
00000F80
00000F80
00000F80
1C000F80
7C000F00
7C001F00
3E001F00
3E003E00
1F007E00
1FC0FC00
0FFFF800
07FFF000
01FFC000
003F0000
ENDCHAR

STARTCHAR six
ENCODING 54
SWIDTH 556 0
DWIDTH 28 0
BBX 26 37 1 -1
BITMAP
001F8000
00FFE000
01FFF800
03FFFC00
07E07E00
0F803E00
0F001F00
1F001F00
1E001F00
3E000000
3C000000
3C000000
3C000000
7C1F8000
7C7FF000
7DFFF800
7BFFFC00
7BC0FE00
7F803E00
7F001F00
7E001F00
7E000F00
7C000F80
7C000F80
7C000F80
7C000F80
3C000F80
3E000F00
3E000F00
1E001F00
1F001F00
0F803E00
0FE0FC00
07FFF800
03FFF000
00FFE000
001F0000
ENDCHAR

STARTCHAR seven
ENCODING 55
SWIDTH 556 0
DWIDTH 28 0
BBX 26 35 1 0
BITMAP
3FFFFF80
3FFFFF80
3FFFFF80
3FFFFF80
00001F00
00003E00
00007C00
0000F800
0000F800
0001F000
0003E000
0003E000
0007C000
0007C000
000F8000
000F8000
001F0000
001F0000
003E0000
003E0000
003C0000
007C0000
007C0000
00780000
00F80000
00F80000
00F00000
01F00000
01F00000
01F00000
01F00000
01F00000
01E00000
01E00000
01E00000
ENDCHAR

STARTCHAR eight
ENCODING 56
SWIDTH 556 0
DWIDTH 28 0
BBX 26 37 1 -1
BITMAP
003E0000
01FFC000
03FFF000
0FFFF800
0FC1F800
1F007C00
1F007C00
1E003E00
3E003E00
3E003E00
3E003E00
1E003E00
1F007C00
0F007C00
0FC1F800
07FFF000
01FFC000
03FFE000
07FFF800
0FC0FC00
1F003E00
3E001E00
3E001F00
3C000F00
7C000F80
7C000F80
7C000F80
7C000F80
3C000F00
3E001F00
3E001F00
1F003E00
0FC0FE00
0FFFFC00
03FFF000
01FFE000
003F0000
ENDCHAR

STARTCHAR nine
ENCODING 57
SWIDTH 556 0
DWIDTH 28 0
BBX 26 37 1 -1
BITMAP
003E0000
01FFC000
03FFF000
07FFF800
0FC0FC00
1F803C00
1F003E00
3E001F00
3E001F00
3C000F00
7C000F00
7C000F80
7C000F80
7C000F80
7C000F80
3C001F80
3E001F80
3F003F80
1F807F80
1FC0F780
0FFFF780
07FFC780
01FF8780
007E0F80
00000F80
00000F00
00000F00
00001F00
3E001E00
3E003E00
1E003E00
1F007C00
0F81F800
0FFFF000
07FFE000
01FFC000
003E0000
ENDCHAR

STARTCHAR colon
ENCODING 58
SWIDTH 278 0
DWIDTH 14 0
BBX 8 26 3 0
BITMAP
7C
7C
7C
7C
7C
00
00
00
00
00
00
00
00
00
00
00
00
00
00
00
00
7C
7C
7C
7C
7C
ENDCHAR

STARTCHAR semicolon
ENCODING 59
SWIDTH 278 0
DWIDTH 14 0
BBX 9 33 2 -7
BITMAP
3E00
3E00
3E00
3E00
3E00
0000
0000
0000
0000
0000
0000
0000
0000
0000
0000
0000
0000
0000
0000
0000
0000
3E00
3E00
3E00
3E00
3E00
0600
0E00
0E00
0C00
1C00
3800
1000
ENDCHAR

STARTCHAR less
ENCODING 60
SWIDTH 584 0
DWIDTH 29 0
BBX 27 23 1 6
BITMAP
00000180
00000F80
00003F80
0001FF80
0007FE00
001FF800
00FFC000
03FF0000
0FFC0000
3FE00000
3F800000
3E000000
3FC00000
3FF00000
0FFC0000
01FF8000
007FE000
001FFC00
0003FF00
0000FF80
00001F80
00000780
00000180
ENDCHAR

STARTCHAR equal
ENCODING 61
SWIDTH 584 0
DWIDTH 29 0
BBX 27 15 1 10
BITMAP
3FFFFF80
3FFFFF80
3FFFFF80
3FFFFF80
00000000
00000000
00000000
00000000
00000000
00000000
00000000
3FFFFF80
3FFFFF80
3FFFFF80
3FFFFF80
ENDCHAR

STARTCHAR greater
ENCODING 62
SWIDTH 584 0
DWIDTH 29 0
BBX 27 23 1 6
BITMAP
38000000
3E000000
3F800000
3FF00000
0FFC0000
03FF8000
007FE000
001FF800
0003FF00
0000FF80
00001F80
00000F80
00003F80
0001FF80
0007FE00
001FF000
00FFC000
03FF0000
1FF80000
3FE00000
3F800000
3C000000
30000000
ENDCHAR

STARTCHAR question
ENCODING 63
SWIDTH 556 0
DWIDTH 28 0
BBX 26 37 1 0
BITMAP
003F8000
00FFE000
03FFF800
07FFFC00
0FC07E00
0F803F00
1F001F00
1F000F00
3E000F80
3E000F80
3E000F80
00000F80
00000F00
00001F00
00001F00
00003E00
00007C00
0000F800
0003F000
0003E000
0007C000
000F8000
000F8000
000F0000
001F0000
001F0000
001F0000
001F0000
00000000
00000000
00000000
00000000
001F0000
001F0000
001F0000
001F0000
001F0000
ENDCHAR

STARTCHAR at
ENCODING 64
SWIDTH 1015 0
DWIDTH 51 0
BBX 49 47 2 -10
BITMAP
00000FF8000000
0000FFFF800000
0003FFFFF00000
000FFFFFF80000
001FE003FE0000
003F80007F0000
007E00001F8000
00F800000FC000
01F0000003E000
03E0000001E000
07C0078001F000
07803FE1E0F000
0F007FF9E07800
0F00FFFBE07800
1E01F03FE07800
1E03E01FC03C00
1C07C00FC03C00
3C07800FC03C00
3C0F8007C03C00
380F0007C03C00
381F0007803C00
381F0007803C00
781E0007803800
781E0007803800
783E000F807800
783E000F007800
783E000F00F000
783E001F00F000
781E001F01E000
381E003E03E000
3C1F007E07C000
3C0F80FE0F8000
3C0FC1FF1F8000
1E07FFDFFE0000
1E03FF9FFC0000
1F01FF1FF80000
0F007807C01E00
07800000003C00
07C00000007C00
03E0000001F800
01F8000003F000
00FE00000FC000
007FC000FF8000
001FFFFFFE0000
0007FFFFF80000
0000FFFFE00000
000007FC000000
ENDCHAR

STARTCHAR A
ENCODING 65
SWIDTH 667 0
DWIDTH 33 0
BBX 37 36 -2 0
BITMAP
0001F80000
0001F80000
0001FC0000
0003FC0000
0003FE0000
0003DE0000
00079E0000
00079F0000
000F8F0000
000F8F8000
000F0F8000
001F078000
001E07C000
001E03C000
003E03E000
003C03E000
007C01E000
007C01F000
007801F000
00F800F800
00F000F800
01FFFFFC00
01FFFFFC00
01FFFFFC00
03FFFFFE00
03E0003E00
03C0003F00
07C0001F00
07C0001F00
0F80000F80
0F80000F80
0F80000FC0
1F000007C0
1F000007C0
3E000007E0
3E000003E0
ENDCHAR

STARTCHAR B
ENCODING 66
SWIDTH 667 0
DWIDTH 33 0
BBX 29 36 3 0
BITMAP
7FFFE000
7FFFFC00
7FFFFE00
7FFFFF00
7C003F80
7C000F80
7C0007C0
7C0007C0
7C0007C0
7C0007C0
7C0007C0
7C0007C0
7C000F80
7C000F80
7C003F00
7FFFFE00
7FFFF800
7FFFFE00
7FFFFF80
7C003FC0
7C0007C0
7C0003E0
7C0003E0
7C0001F0
7C0001F0
7C0001F0
7C0001F0
7C0001F0
7C0003F0
7C0003E0
7C0007E0
7C001FC0
7FFFFF80
7FFFFF00
7FFFFE00
7FFFF800
ENDCHAR

STARTCHAR C
ENCODING 67
SWIDTH 722 0
DWIDTH 36 0
BBX 34 37 1 -1
BITMAP
0007FC0000
001FFF8000
007FFFE000
01FFFFF000
03FC07F800
07F001FC00
0FC0007C00
0F80007E00
1F80003F00
1F00001F00
3E00001F00
3E00001000
3E00000000
3C00000000
7C00000000
7C00000000
7C00000000
7C00000000
7C00000000
7C00000000
7C00000000
7C00000000
7C00000000
3E00000000
3E00000C00
3E00000F80
3F00001F00
1F00001F00
1F80003F00
0F80007E00
0FC000FC00
07F001FC00
03FC07F800
01FFFFF000
00FFFFE000
003FFF8000
0007FC0000
ENDCHAR

STARTCHAR D
ENCODING 68
SWIDTH 722 0
DWIDTH 36 0
BBX 32 36 3 0
BITMAP
7FFFF800
7FFFFE00
7FFFFF80
7FFFFFC0
7C003FE0
7C0007F0
7C0003F0
7C0001F8
7C0000F8
7C00007C
7C00007C
7C00007C
7C00003E
7C00003E
7C00003E
7C00003E
7C00003E
7C00003E
7C00003E
7C00003E
7C00003E
7C00003E
7C00003E
7C00007C
7C00007C
7C00007C
7C0000FC
7C0000F8
7C0001F8
7C0003F0
7C0007E0
7C003FE0
7FFFFFC0
7FFFFF00
7FFFFE00
7FFFF000
ENDCHAR

STARTCHAR E
ENCODING 69
SWIDTH 667 0
DWIDTH 33 0
BBX 29 35 3 0
BITMAP
7FFFFFE0
7FFFFFE0
7FFFFFE0
7FFFFFE0
7C000000
7C000000
7C000000
7C000000
7C000000
7C000000
7C000000
7C000000
7C000000
7C000000
7C000000
7FFFFFC0
7FFFFFC0
7FFFFFC0
7FFFFFC0
7C000000
7C000000
7C000000
7C000000
7C000000
7C000000
7C000000
7C000000
7C000000
7C000000
7C000000
7C000000
7FFFFFF0
7FFFFFF0
7FFFFFF0
7FFFFFF0
ENDCHAR

STARTCHAR F
ENCODING 70
SWIDTH 611 0
DWIDTH 31 0
BBX 27 36 3 0
BITMAP
7FFFFF80
7FFFFF80
7FFFFF80
7FFFFF80
7C000000
7C000000
7C000000
7C000000
7C000000
7C000000
7C000000
7C000000
7C000000
7C000000
7C000000
7FFFFE00
7FFFFE00
7FFFFE00
7FFFFE00
7C000000
7C000000
7C000000
7C000000
7C000000
7C000000
7C000000
7C000000
7C000000
7C000000
7C000000
7C000000
7C000000
7C000000
7C000000
7C000000
7C000000
ENDCHAR

STARTCHAR G
ENCODING 71
SWIDTH 778 0
DWIDTH 39 0
BBX 35 37 2 -1
BITMAP
0003FF0000
001FFFE000
007FFFF000
00FFFFF800
03FE01FC00
03F0007E00
07E0003F00
0FC0001F00
1F80000F80
1F00000F80
1F00000780
3E00000000
3E00000000
3C00000000
7C00000000
7C00000000
7C00000000
7C00000000
7C001FFFC0
7C001FFFC0
7C001FFFC0
7C001FFFC0
7C000007C0
3E000007C0
3E000007C0
3E000007C0
1F000007C0
1F000007C0
0F800007C0
0FC00007C0
07E0001FC0
03F8007FC0
01FF03FF00
00FFFFFE00
007FFFF800
001FFFE000
0003FF0000
ENDCHAR

STARTCHAR H
ENCODING 72
SWIDTH 722 0
DWIDTH 36 0
BBX 30 36 3 0
BITMAP
7C0000F8
7C0000F8
7C0000F8
7C0000F8
7C0000F8
7C0000F8
7C0000F8
7C0000F8
7C0000F8
7C0000F8
7C0000F8
7C0000F8
7C0000F8
7C0000F8
7C0000F8
7FFFFFF8
7FFFFFF8
7FFFFFF8
7FFFFFF8
7C0000F8
7C0000F8
7C0000F8
7C0000F8
7C0000F8
7C0000F8
7C0000F8
7C0000F8
7C0000F8
7C0000F8
7C0000F8
7C0000F8
7C0000F8
7C0000F8
7C0000F8
7C0000F8
7C0000F8
ENDCHAR

STARTCHAR I
ENCODING 73
SWIDTH 278 0
DWIDTH 14 0
BBX 7 36 3 0
BITMAP
7C
7C
7C
7C
7C
7C
7C
7C
7C
7C
7C
7C
7C
7C
7C
7C
7C
7C
7C
7C
7C
7C
7C
7C
7C
7C
7C
7C
7C
7C
7C
7C
7C
7C
7C
7C
ENDCHAR

STARTCHAR J
ENCODING 74
SWIDTH 500 0
DWIDTH 25 0
BBX 22 36 0 -1
BITMAP
0000F8
0000F8
0000F8
0000F8
0000F8
0000F8
0000F8
0000F8
0000F8
0000F8
0000F8
0000F8
0000F8
0000F8
0000F8
0000F8
0000F8
0000F8
0000F8
0000F8
0000F8
0000F8
0000F8
0000F8
0000F8
7C00F8
7C00F8
7C00F8
7C00F8
3C01F0
3E01F0
3F87F0
1FFFE0
0FFFC0
07FF80
01FE00
ENDCHAR

STARTCHAR K
ENCODING 75
SWIDTH 667 0
DWIDTH 33 0
BBX 32 36 3 0
BITMAP
7C0001FC
7C0003F8
7C0007E0
7C000FC0
7C001F80
7C003F00
7C007E00
7C00FC00
7C01F800
7C03F000
7C07E000
7C0FC000
7C1F8000
7C3F0000
7C7E0000
7CFF0000
7DFF0000
7FFF8000
7FEFC000
7FC7E000
7F83E000
7F03F000
7E01F800
7C00FC00
7C00FC00
7C007E00
7C003F00
7C001F80
7C001F80
7C000FC0
7C0007E0
7C0007E0
7C0003F0
7C0001F8
7C0001FC
7C0000FC
ENDCHAR

STARTCHAR L
ENCODING 76
SWIDTH 556 0
DWIDTH 28 0
BBX 25 36 3 0
BITMAP
7C000000
7C000000
7C000000
7C000000
7C000000
7C000000
7C000000
7C000000
7C000000
7C000000
7C000000
7C000000
7C000000
7C000000
7C000000
7C000000
7C000000
7C000000
7C000000
7C000000
7C000000
7C000000
7C000000
7C000000
7C000000
7C000000
7C000000
7C000000
7C000000
7C000000
7C000000
7C000000
7FFFFF00
7FFFFF00
7FFFFF00
7FFFFF00
ENDCHAR

STARTCHAR M
ENCODING 77
SWIDTH 833 0
DWIDTH 42 0
BBX 37 36 2 0
BITMAP
7F800007F0
7F800007F0
7F800007F0
7FC0000FF0
7FC0000FF0
7FC0000FF0
7FE0001FF0
7DE0001FF0
7DE0003DF0
7DF0003DF0
7CF0003DF0
7CF00079F0
7CF80079F0
7C780079F0
7C7800F1F0
7C7C00F1F0
7C3C00E1F0
7C3C01E1F0
7C3E01E1F0
7C1E01C1F0
7C1E03C1F0
7C1F03C1F0
7C0F0381F0
7C0F0781F0
7C0F8781F0
7C078701F0
7C078F01F0
7C07CF01F0
7C03CE01F0
7C03DE01F0
7C03FE01F0
7C01FC01F0
7C01FC01F0
7C01FC01F0
7C00F801F0
7C00F801F0
ENDCHAR

STARTCHAR N
ENCODING 78
SWIDTH 722 0
DWIDTH 36 0
BBX 31 36 3 0
BITMAP
7E00007C
7E00007C
7F00007C
7F80007C
7F80007C
7FC0007C
7FE0007C
7FE0007C
7FF0007C
7DF8007C
7CF8007C
7CFC007C
7C7E007C
7C3E007C
7C3F007C
7C1F807C
7C0F807C
7C0FC07C
7C07E07C
7C03E07C
7C03F07C
7C01F87C
7C00F87C
7C00FC7C
7C007E7C
7C003E7C
7C003F7C
7C001FFC
7C000FFC
7C0007FC
7C0007FC
7C0003FC
7C0001FC
7C0001FC
7C0000FC
7C00007C
ENDCHAR

STARTCHAR O
ENCODING 79
SWIDTH 778 0
DWIDTH 39 0
BBX 36 37 1 -1
BITMAP
0007FC0000
001FFF8000
007FFFE000
00FFFFF800
03FC03FC00
03F000FE00
07E0007E00
0FC0003F00
1F80001F80
1F00000F80
1F00000FC0
3E000007C0
3E000007C0
3E000003E0
7C000003E0
7C000003E0
7C000003E0
7C000003E0
7C000003E0
7C000003E0
7C000003E0
7C000003E0
7C000003E0
3E000003E0
3E000007C0
3E000007C0
1F000007C0
1F00000F80
0F80001F80
0FC0003F00
07E0007E00
03F000FE00
01FE03FC00
00FFFFF000
007FFFE000
001FFF8000
0003FE0000
ENDCHAR

STARTCHAR P
ENCODING 80
SWIDTH 667 0
DWIDTH 33 0
BBX 29 36 3 0
BITMAP
7FFFF800
7FFFFE00
7FFFFF80
7FFFFFC0
7C001FC0
7C0007E0
7C0003E0
7C0001F0
7C0001F0
7C0001F0
7C0001F0
7C0001F0
7C0001F0
7C0001F0
7C0003E0
7C0007E0
7C001FC0
7FFFFF80
7FFFFF00
7FFFFE00
7FFFF800
7C000000
7C000000
7C000000
7C000000
7C000000
7C000000
7C000000
7C000000
7C000000
7C000000
7C000000
7C000000
7C000000
7C000000
7C000000
ENDCHAR

STARTCHAR Q
ENCODING 81
SWIDTH 778 0
DWIDTH 39 0
BBX 37 39 1 -3
BITMAP
0007FC0000
001FFF8000
007FFFE000
00FFFFF800
03FC03FC00
07F000FE00
07E0007F00
0FC0003F00
1F80001F80
1F00000F80
1F00000FC0
3E000007C0
3E000007C0
3E000003E0
7C000003E0
7C000003E0
7C000003E0
7C000003E0
7C000003E0
7C000003E0
7C000003E0
7C000003E0
7C000003E0
3E000003C0
3E000007C0
3E000007C0
1F000007C0
1F001C0F80
1F801F1F80
0FC03FBF00
07E00FFE00
03F003FE00
03FE07FC00
00FFFFFE00
007FFFFF80
001FFF8FE0
0003FC07E0
00000001E0
0000000060
ENDCHAR

STARTCHAR R
ENCODING 82
SWIDTH 722 0
DWIDTH 36 0
BBX 34 36 3 0
BITMAP
7FFFFE0000
7FFFFF8000
7FFFFFE000
7FFFFFF000
7C0007F800
7C0001F800
7C0000F800
7C00007C00
7C00007C00
7C00007C00
7C00007C00
7C00007C00
7C0000FC00
7C0000F800
7C0001F800
7C000FF000
7FFFFFE000
7FFFFFC000
7FFFFF0000
7FFFF00000
7C01F80000
7C007E0000
7C003F0000
7C001F8000
7C001F8000
7C000FC000
7C0007E000
7C0003E000
7C0003F000
7C0001F800
7C0001F800
7C0000FC00
7C00007E00
7C00007E00
7C00003F00
7C00001F80
ENDCHAR

STARTCHAR S
ENCODING 83
SWIDTH 667 0
DWIDTH 33 0
BBX 32 37 0 -1
BITMAP
001FF800
00FFFF00
01FFFFC0
03FFFFE0
07F80FF0
0FC003F0
0F8001F8
0F0000F8
1F000078
1F00007C
1F00007C
1F000000
0F800000
0FC00000
07FC0000
07FFC000
03FFFC00
00FFFF80
003FFFE0
0003FFF0
00003FF8
000007F8
000000FC
0000007C
0000003E
3E00003E
3E00003E
3E00003E
3F00003E
1F00007C
1F80007C
0FE001F8
07FC07F8
03FFFFF0
01FFFFC0
007FFF80
000FFC00
ENDCHAR

STARTCHAR T
ENCODING 84
SWIDTH 611 0
DWIDTH 31 0
BBX 31 36 0 0
BITMAP
7FFFFFFC
7FFFFFFC
7FFFFFFC
7FFFFFFC
0007C000
0007C000
0007C000
0007C000
0007C000
0007C000
0007C000
0007C000
0007C000
0007C000
0007C000
0007C000
0007C000
0007C000
0007C000
0007C000
0007C000
0007C000
0007C000
0007C000
0007C000
0007C000
0007C000
0007C000
0007C000
0007C000
0007C000
0007C000
0007C000
0007C000
0007C000
0007C000
ENDCHAR

STARTCHAR U
ENCODING 85
SWIDTH 722 0
DWIDTH 36 0
BBX 30 36 3 -1
BITMAP
7C0000F8
7C0000F8
7C0000F8
7C0000F8
7C0000F8
7C0000F8
7C0000F8
7C0000F8
7C0000F8
7C0000F8
7C0000F8
7C0000F8
7C0000F8
7C0000F8
7C0000F8
7C0000F8
7C0000F8
7C0000F8
7C0000F8
7C0000F8
7C0000F8
7C0000F8
7C0000F8
7C0000F8
7C0000F8
7C0000F8
3E0000F0
3E0001F0
3E0001F0
1F0003E0
1FC007E0
0FF03FC0
07FFFF80
03FFFF00
01FFFE00
003FF000
ENDCHAR

STARTCHAR V
ENCODING 86
SWIDTH 667 0
DWIDTH 33 0
BBX 35 36 -1 0
BITMAP
7E000007C0
3E00000780
3E00000F80
1F00000F80
1F00000F00
1F00001F00
0F80001E00
0F80003E00
0F80003E00
07C0003C00
07C0007C00
03C0007800
03E0007800
03E000F800
01F000F000
01F001F000
00F001F000
00F801E000
00F803E000
007803C000
007C03C000
007C07C000
003C078000
003E0F8000
001E0F0000
001E0F0000
001F1F0000
000F1E0000
000F9E0000
0007BC0000
0007BC0000
0007BC0000
0003F80000
0003F80000
0001F80000
0001F00000
ENDCHAR

STARTCHAR W
ENCODING 87
SWIDTH 944 0
DWIDTH 47 0
BBX 49 36 -1 0
BITMAP
3E0003F0001E00
3E0007F0003E00
3E0007F0003E00
3E0007F0003E00
1E000778003C00
1F000F78007C00
1F000F78007C00
1F000F7C007800
0F001E3C007800
0F801E3C00F800
0F801E3C00F800
07801E3E00F000
07803C1E00F000
07C03C1E00F000
07C03C1F01F000
03C07C0F01E000
03C0780F01E000
03C0780F01E000
03E0780F83C000
01E0F00783C000
01E0F00783C000
01E0F007C3C000
01F1F007C78000
00F1E003C78000
00F1E003C78000
00F1E003C78000
007BC001EF0000
007BC001EF0000
007BC001EF0000
007BC001EE0000
003B8000EE0000
003F8000FE0000
003F8000FE0000
003F8000FC0000
001F00007C0000
001F00007C0000
ENDCHAR

STARTCHAR X
ENCODING 88
SWIDTH 667 0
DWIDTH 33 0
BBX 36 36 -1 0
BITMAP
1F80000F80
0FC0001F00
07C0003E00
07E0007C00
03F0007C00
01F000F800
01F801F000
00FC03E000
007E03E000
003E07C000
003F0F8000
001F9F8000
000F9F0000
000FFE0000
0007FC0000
0003FC0000
0001F80000
0001F80000
0003FC0000
0007FC0000
0007FE0000
000FBF0000
001F1F0000
003F1F8000
003E0FC000
007C07E000
00FC07E000
00F803F000
01F001F800
03F000F800
07E000FC00
07C0007E00
0F80003F00
1F80003F00
3F00001F80
3E00000FC0
ENDCHAR

STARTCHAR Y
ENCODING 89
SWIDTH 667 0
DWIDTH 33 0
BBX 36 36 -1 0
BITMAP
3E00000FC0
3F00000F80
1F80001F00
0F80003F00
0FC0003E00
07E0007C00
03E000FC00
03F000F800
01F801F000
00F803F000
00FC03E000
007E07C000
003E07C000
003F0F8000
001F1F0000
000F9E0000
000FFE0000
0007FC0000
0003F80000
0003F80000
0001F00000
0001F00000
0001F00000
0001F00000
0001F00000
0001F00000
0001F00000
0001F00000
0001F00000
0001F00000
0001F00000
0001F00000
0001F00000
0001F00000
0001F00000
0001F00000
ENDCHAR

STARTCHAR Z
ENCODING 90
SWIDTH 611 0
DWIDTH 31 0
BBX 32 36 -1 0
BITMAP
0FFFFFFC
0FFFFFFC
0FFFFFFC
0FFFFFFC
000000F8
000001F8
000003F0
000007E0
00000FC0
00000F80
00001F80
00003F00
00007E00
0000FC00
0000F800
0001F800
0003F000
0007E000
000FC000
000F8000
001F8000
003F0000
007E0000
00FC0000
00F80000
01F80000
03F00000
07E00000
0FC00000
0F800000
1F800000
3F000000
3FFFFFFC
3FFFFFFC
3FFFFFFC
3FFFFFFC
ENDCHAR

STARTCHAR bracketleft
ENCODING 91
SWIDTH 278 0
DWIDTH 14 0
BBX 13 46 1 -10
BITMAP
3FF0
3FF0
3FF0
3FF0
3C00
3C00
3C00
3C00
3C00
3C00
3C00
3C00
3C00
3C00
3C00
3C00
3C00
3C00
3C00
3C00
3C00
3C00
3C00
3C00
3C00
3C00
3C00
3C00
3C00
3C00
3C00
3C00
3C00
3C00
3C00
3C00
3C00
3C00
3C00
3C00
3C00
3C00
3FF0
3FF0
3FF0
3FF0
ENDCHAR

STARTCHAR backslash
ENCODING 92
SWIDTH 278 0
DWIDTH 14 0
BBX 16 37 -1 -1
BITMAP
7800
3800
3800
3C00
3C00
1C00
1E00
1E00
0E00
0E00
0F00
0F00
0700
0700
0780
0780
0380
03C0
03C0
01C0
01C0
01E0
01E0
00E0
00F0
00F0
0070
0070
0078
0078
0038
0038
003C
001C
001C
001E
001E
ENDCHAR

STARTCHAR bracketright
ENCODING 93
SWIDTH 278 0
DWIDTH 14 0
BBX 13 46 -1 -10
BITMAP
3FE0
3FE0
3FE0
3FE0
01E0
01E0
01E0
01E0
01E0
01E0
01E0
01E0
01E0
01E0
01E0
01E0
01E0
01E0
01E0
01E0
01E0
01E0
01E0
01E0
01E0
01E0
01E0
01E0
01E0
01E0
01E0
01E0
01E0
01E0
01E0
01E0
01E0
01E0
01E0
01E0
01E0
01E0
3FE0
3FE0
3FE0
3FE0
ENDCHAR

STARTCHAR asciicircum
ENCODING 94
SWIDTH 469 0
DWIDTH 23 0
BBX 24 19 0 17
BITMAP
003C00
007C00
007E00
00FE00
00FF00
01EF00
01EF80
01C780
03C780
03C3C0
0783C0
0781E0
0F01E0
0F01F0
1F00F0
1E00F8
1E0078
3C0078
3C007C
ENDCHAR

STARTCHAR underscore
ENCODING 95
SWIDTH 556 0
DWIDTH 28 0
BBX 32 3 -2 -6
BITMAP
3FFFFFFC
3FFFFFFC
3FFFFFFC
ENDCHAR

STARTCHAR quoteleft
ENCODING 96
SWIDTH 222 0
DWIDTH 11 0
BBX 8 11 2 25
BITMAP
1C
38
30
70
70
70
7C
7C
7C
7C
7C
ENDCHAR

STARTCHAR a
ENCODING 97
SWIDTH 556 0
DWIDTH 28 0
BBX 26 27 1 -1
BITMAP
003F8000
01FFF000
07FFF800
0FFFFC00
1F807E00
1E003E00
3E003E00
3C001E00
00001E00
00001E00
00007E00
001FFE00
03FFFE00
0FFFFE00
1FFF1E00
1FE01E00
3F001E00
3C001E00
7C001E00
7C003E00
7C003E00
7C007E00
3E00FE00
3F87FF00
1FFFDF00
0FFF0F00
03FC0000
ENDCHAR

STARTCHAR b
ENCODING 98
SWIDTH 556 0
DWIDTH 28 0
BBX 26 37 1 -1
BITMAP
3C000000
3C000000
3C000000
3C000000
3C000000
3C000000
3C000000
3C000000
3C000000
3C1F0000
3C7FE000
3DFFF000
3DFFF800
3FC0FC00
3F807E00
3F003E00
3E001F00
3E001F00
3E000F00
3C000F80
3C000F80
3C000F80
3C000F80
3C000F80
3C000F80
3C000F80
3C000F00
3C000F00
3E001F00
3E001F00
3F003E00
3F807E00
3FC0FC00
3FFFF800
3DFFF000
3C7FC000
001F0000
ENDCHAR

STARTCHAR c
ENCODING 99
SWIDTH 500 0
DWIDTH 25 0
BBX 25 27 1 -1
BITMAP
001F0000
01FFE000
03FFF000
07FFF800
0FC0FC00
1F003E00
1F003E00
3E001E00
3E001C00
3C000000
3C000000
7C000000
7C000000
7C000000
7C000000
7C000000
3C000000
3C001F00
3E001F00
3E001E00
1F003E00
1F003E00
0FC0FC00
07FFF800
03FFF000
01FFE000
003F0000
ENDCHAR

STARTCHAR d
ENCODING 100
SWIDTH 556 0
DWIDTH 28 0
BBX 26 37 0 -1
BITMAP
00000F00
00000F00
00000F00
00000F00
00000F00
00000F00
00000F00
00000F00
00000F00
003E0F00
01FF8F00
03FFEF00
07FFFF00
0FC0FF00
1F807F00
1F003F00
3E001F00
3E001F00
3C000F00
3C000F00
7C000F00
7C000F00
7C000F00
7C000F00
7C000F00
7C000F00
3C000F00
3C000F00
3E001F00
3E001F00
1F003F00
0F807F00
0FC0FF00
07FFFF00
03FFEF00
00FFCF00
003E0000
ENDCHAR

STARTCHAR e
ENCODING 101
SWIDTH 556 0
DWIDTH 28 0
BBX 27 27 0 -1
BITMAP
001F8000
00FFF000
01FFF800
03FFFC00
07E07E00
0F801F00
0F000F00
1F000F80
1E000780
3E000780
3E0007C0
3FFFFFC0
3FFFFFC0
3FFFFFC0
3FFFFFC0
3E000000
3E000000
3E000000
3E000700
1F000780
1F800F80
0F801F00
0FE03F00
07FFFE00
01FFFC00
00FFF000
001FC000
ENDCHAR

STARTCHAR f
ENCODING 102
SWIDTH 278 0
DWIDTH 14 0
BBX 19 37 -2 0
BITMAP
003F80
00FF80
01FF80
01FF80
03F000
03E000
03C000
03C000
03C000
03C000
03C000
3FFE00
3FFE00
3FFE00
03C000
03C000
03C000
03C000
03C000
03C000
03C000
03C000
03C000
03C000
03C000
03C000
03C000
03C000
03C000
03C000
03C000
03C000
03C000
03C000
03C000
03C000
03C000
ENDCHAR

STARTCHAR g
ENCODING 103
SWIDTH 556 0
DWIDTH 28 0
BBX 26 38 0 -11
BITMAP
003E0000
01FF8F00
03FFEF00
07FFFF00
0FC0FF00
1F807F00
1F003F00
3E001F00
3E001F00
3C001F00
3C000F00
7C000F00
7C000F00
7C000F00
7C000F00
7C000F00
3C000F00
3C000F00
3E001F00
3E001F00
1F003F00
1F807F00
0FC0FF00
07FFFF00
03FFEF00
01FF8F00
003E0F00
00000F00
00001F00
30001F00
3E001E00
3E003E00
1F007E00
1F80FC00
0FFFF800
07FFF000
03FFE000
007F0000
ENDCHAR

STARTCHAR h
ENCODING 104
SWIDTH 556 0
DWIDTH 28 0
BBX 25 36 1 0
BITMAP
3C000000
3C000000
3C000000
3C000000
3C000000
3C000000
3C000000
3C000000
3C000000
3C1F8000
3C7FF000
3DFFF800
3FFFFC00
3FC0FC00
3F807E00
3F003E00
3E003E00
3E001E00
3C001E00
3C001E00
3C001E00
3C001E00
3C001E00
3C001E00
3C001E00
3C001E00
3C001E00
3C001E00
3C001E00
3C001E00
3C001E00
3C001E00
3C001E00
3C001E00
3C001E00
3C001E00
ENDCHAR

STARTCHAR i
ENCODING 105
SWIDTH 222 0
DWIDTH 11 0
BBX 8 36 2 0
BITMAP
3C
3C
3C
3C
3C
00
00
00
00
00
3C
3C
3C
3C
3C
3C
3C
3C
3C
3C
3C
3C
3C
3C
3C
3C
3C
3C
3C
3C
3C
3C
3C
3C
3C
3C
ENDCHAR

STARTCHAR j
ENCODING 106
SWIDTH 222 0
DWIDTH 11 0
BBX 13 46 -3 -10
BITMAP
01E0
01E0
01E0
01E0
01E0
0000
0000
0000
0000
0000
01E0
01E0
01E0
01E0
01E0
01E0
01E0
01E0
01E0
01E0
01E0
01E0
01E0
01E0
01E0
01E0
01E0
01E0
01E0
01E0
01E0
01E0
01E0
01E0
01E0
01E0
01E0
01E0
01E0
01E0
03E0
03E0
3FC0
3FC0
3F80
3E00
ENDCHAR

STARTCHAR k
ENCODING 107
SWIDTH 500 0
DWIDTH 25 0
BBX 25 36 1 0
BITMAP
3C000000
3C000000
3C000000
3C000000
3C000000
3C000000
3C000000
3C000000
3C000000
3C000000
3C00FC00
3C01F800
3C03F000
3C07E000
3C0FC000
3C1F8000
3C3F0000
3C7E0000
3CFC0000
3DF80000
3FF80000
3FFC0000
3FFC0000
3F3E0000
3E3F0000
3C1F0000
3C0F8000
3C0FC000
3C07C000
3C03E000
3C03F000
3C01F000
3C00F800
3C00FC00
3C007C00
3C003E00
ENDCHAR

STARTCHAR l
ENCODING 108
SWIDTH 222 0
DWIDTH 11 0
BBX 8 36 1 0
BITMAP
3C
3C
3C
3C
3C
3C
3C
3C
3C
3C
3C
3C
3C
3C
3C
3C
3C
3C
3C
3C
3C
3C
3C
3C
3C
3C
3C
3C
3C
3C
3C
3C
3C
3C
3C
3C
ENDCHAR

STARTCHAR m
ENCODING 109
SWIDTH 833 0
DWIDTH 42 0
BBX 39 27 1 0
BITMAP
001F803F00
3C7FE0FFC0
3DFFF1FFE0
3FFFFBFFF0
3FC1FF81F8
3F80FF00F8
3F007E00F8
3E007E0078
3E007C0078
3C007C0078
3C007C0078
3C007C0078
3C007C0078
3C007C0078
3C007C0078
3C007C0078
3C007C0078
3C007C0078
3C007C0078
3C007C0078
3C007C0078
3C007C0078
3C007C0078
3C007C0078
3C007C0078
3C007C0078
3C007C0078
ENDCHAR

STARTCHAR n
ENCODING 110
SWIDTH 556 0
DWIDTH 28 0
BBX 25 27 1 0
BITMAP
001F8000
3C7FF000
3DFFF800
3FFFFC00
3FC0FC00
3F807E00
3F003E00
3E003E00
3E001E00
3C001E00
3C001E00
3C001E00
3C001E00
3C001E00
3C001E00
3C001E00
3C001E00
3C001E00
3C001E00
3C001E00
3C001E00
3C001E00
3C001E00
3C001E00
3C001E00
3C001E00
3C001E00
ENDCHAR

STARTCHAR o
ENCODING 111
SWIDTH 556 0
DWIDTH 28 0
BBX 27 27 0 -1
BITMAP
001F8000
00FFE000
03FFF800
07FFFC00
0FC07E00
1F803F00
1F001F00
3E000F80
3E000F80
3C000780
3C0007C0
7C0007C0
7C0007C0
7C0007C0
7C0007C0
7C0007C0
7C0007C0
3C000780
3E000F80
3E000F80
1F001F00
1F803F00
0FC07E00
07FFFC00
03FFF800
00FFE000
003F0000
ENDCHAR

STARTCHAR p
ENCODING 112
SWIDTH 556 0
DWIDTH 28 0
BBX 25 36 2 -10
BITMAP
787F8000
79FFE000
7BFFF000
7FE3F800
7F80FC00
7F007C00
7E003E00
7C003E00
7C001E00
7C001F00
78001F00
78001F00
78001F00
78001F00
78001F00
78001F00
78001E00
7C001E00
7C003E00
7C003E00
7E007C00
7F00FC00
7F81F800
7FFFF000
7BFFE000
78FFC000
783E0000
78000000
78000000
78000000
78000000
78000000
78000000
78000000
78000000
78000000
ENDCHAR

STARTCHAR q
ENCODING 113
SWIDTH 556 0
DWIDTH 28 0
BBX 26 36 0 -10
BITMAP
00FF0F00
03FFCF00
07FFEF00
0FE1FF00
0F807F00
1F003F00
3E003F00
3E001F00
3C001F00
3C000F00
3C000F00
7C000F00
7C000F00
7C000F00
7C000F00
7C000F00
3C000F00
3C000F00
3E001F00
3E001F00
1F003F00
1F807F00
0FC0FF00
07FFFF00
03FFEF00
01FF8F00
003E0F00
00000F00
00000F00
00000F00
00000F00
00000F00
00000F00
00000F00
00000F00
00000F00
ENDCHAR

STARTCHAR r
ENCODING 114
SWIDTH 333 0
DWIDTH 17 0
BBX 17 27 1 0
BITMAP
003800
3CFF00
3DFF00
3DFE00
3FFE00
3F8000
3F0000
3E0000
3E0000
3E0000
3C0000
3C0000
3C0000
3C0000
3C0000
3C0000
3C0000
3C0000
3C0000
3C0000
3C0000
3C0000
3C0000
3C0000
3C0000
3C0000
3C0000
ENDCHAR

STARTCHAR s
ENCODING 115
SWIDTH 500 0
DWIDTH 25 0
BBX 24 27 0 -1
BITMAP
00FE00
03FFC0
0FFFE0
1FFFF0
1F01F8
3E00F8
3C007C
3C0078
3E0000
3F0000
1FE000
1FFE00
0FFFC0
03FFF0
007FF8
0007FC
0000FC
00003E
3C003E
7C003E
3C003E
3E007C
1F80FC
1FFFF8
0FFFF0
03FFC0
007E00
ENDCHAR

STARTCHAR t
ENCODING 116
SWIDTH 278 0
DWIDTH 14 0
BBX 16 35 -1 -1
BITMAP
0080
0380
0780
0780
0780
0780
0780
0780
0780
3FFC
3FFC
3FFC
0780
0780
0780
0780
0780
0780
0780
0780
0780
0780
0780
0780
0780
0780
0780
0780
0780
0780
07C0
07FC
03FC
03FC
00FC
ENDCHAR

STARTCHAR u
ENCODING 117
SWIDTH 556 0
DWIDTH 28 0
BBX 25 27 1 -1
BITMAP
3C001E00
3C001E00
3C001E00
3C001E00
3C001E00
3C001E00
3C001E00
3C001E00
3C001E00
3C001E00
3C001E00
3C001E00
3C001E00
3C001E00
3C001E00
3C001E00
3C001E00
3C001E00
3C003E00
3E003E00
3E007E00
3F00FE00
1F81FE00
1FFFDE00
0FFF9E00
03FF1E00
00FC0000
ENDCHAR

STARTCHAR v
ENCODING 118
SWIDTH 500 0
DWIDTH 25 0
BBX 27 26 -1 0
BITMAP
3E000780
3E000F80
1E000F80
1F000F00
1F001F00
0F001E00
0F801E00
0F803E00
07803C00
07C07C00
03C07800
03C07800
03E0F800
01E0F000
01F0F000
00F1F000
00F1E000
00F9E000
007BC000
007BC000
007FC000
003F8000
003F8000
001F8000
001F0000
001F0000
ENDCHAR

STARTCHAR w
ENCODING 119
SWIDTH 722 0
DWIDTH 36 0
BBX 38 26 -1 0
BITMAP
7C007C00F8
3C007C00F0
3E00FC00F0
3E00FC00F0
1E00FE01E0
1E01FE01E0
1F01FE01E0
0F01FE03E0
0F01CF03C0
0F03CF03C0
0F83CF03C0
0783CF0780
0783878780
07C7878780
03C7878F00
03C787CF00
03C703CF00
01EF03DE00
01EF03DE00
01EF03FE00
00EE01FC00
00FE01FC00
00FE01FC00
00FC01F800
007C00F800
007C00F800
ENDCHAR

STARTCHAR x
ENCODING 120
SWIDTH 500 0
DWIDTH 25 0
BBX 27 26 -1 0
BITMAP
3F001F80
1F801F00
0F803E00
07C07C00
07E07C00
03E0F800
01F1F000
01F3E000
00FBE000
007FC000
007F8000
003F8000
001F0000
003F8000
007FC000
007FC000
00FBE000
01F1F000
01F1F000
03E0F800
07C07C00
07C07E00
0F803E00
1F001F00
3F001F80
3E000F80
ENDCHAR

STARTCHAR y
ENCODING 121
SWIDTH 500 0
DWIDTH 25 0
BBX 27 36 -1 -10
BITMAP
3E000780
3E000780
1F000F80
1F000F00
0F000F00
0F801E00
0F801E00
07803E00
07C03C00
07C03C00
03C07C00
03E07800
01E07800
01E0F000
01F0F000
00F1F000
00F9E000
00F9E000
007BE000
007FC000
003FC000
003F8000
003F8000
001F8000
001F0000
000F0000
001F0000
001E0000
001E0000
003C0000
003C0000
00FC0000
0FF80000
0FF00000
0FE00000
0FC00000
ENDCHAR

STARTCHAR z
ENCODING 122
SWIDTH 500 0
DWIDTH 25 0
BBX 25 26 0 0
BITMAP
3FFFFE00
3FFFFE00
3FFFFE00
3FFFFE00
00007C00
0000F800
0001F000
0003E000
0007E000
000FC000
001F8000
001F0000
003E0000
007C0000
00F80000
01F00000
03F00000
07E00000
0FC00000
0F800000
1F000000
3E000000
7FFFFF00
7FFFFF00
7FFFFF00
7FFFFF00
ENDCHAR

STARTCHAR braceleft
ENCODING 123
SWIDTH 334 0
DWIDTH 17 0
BBX 18 47 0 -11
BITMAP
001F00
007F00
007F00
00FF00
00F000
01E000
01E000
01E000
01E000
01E000
01E000
01E000
01E000
01E000
01E000
01E000
01E000
01E000
03C000
03C000
07C000
3F8000
3F0000
3C0000
3F0000
3F8000
07C000
03C000
03C000
01E000
01E000
01E000
01E000
01E000
01E000
01E000
01E000
01E000
01E000
01E000
01E000
01F000
00F000
00FF00
00FF00
007F00
001F00
ENDCHAR

STARTCHAR bar
ENCODING 124
SWIDTH 260 0
DWIDTH 13 0
BBX 6 46 4 -10
BITMAP
78
78
78
78
78
78
78
78
78
78
78
78
78
78
78
78
78
78
78
78
78
78
78
78
78
78
78
78
78
78
78
78
78
78
78
78
78
78
78
78
78
78
78
78
78
78
ENDCHAR

STARTCHAR braceright
ENCODING 125
SWIDTH 334 0
DWIDTH 17 0
BBX 17 47 0 -11
BITMAP
7C0000
7F0000
7F8000
7F8000
07C000
03C000
03C000
03C000
03C000
03C000
03C000
03C000
03C000
03C000
03C000
03C000
03C000
03E000
01E000
01E000
01F000
00FE00
007E00
001E00
007E00
00FE00
01F000
01E000
01E000
03E000
03C000
03C000
03C000
03C000
03C000
03C000
03C000
03C000
03C000
03C000
03C000
03C000
07C000
7F8000
7F8000
7F0000
7C0000
ENDCHAR

STARTCHAR asciitilde
ENCODING 126
SWIDTH 584 0
DWIDTH 29 0
BBX 28 8 1 14
BITMAP
03E00000
1FFC00C0
3FFF01C0
7FFFFFC0
7FFFFFC0
781FFFC0
6003FF00
40007C00
ENDCHAR

STARTCHAR space
ENCODING 160
SWIDTH 333 0
DWIDTH 20 0
BBX 0 0 0 0
BITMAP
ENDCHAR

STARTCHAR exclamdown
ENCODING 161
SWIDTH 333 0
DWIDTH 17 0
BBX 9 36 4 -10
BITMAP
3E00
3E00
3E00
3E00
3E00
0000
0000
0000
0000
1C00
1C00
1C00
1C00
1C00
1C00
1C00
1C00
3E00
3E00
3E00
3E00
3E00
3E00
3E00
3E00
3E00
3E00
3E00
3E00
3E00
3E00
3E00
3E00
3E00
3E00
3E00
ENDCHAR

STARTCHAR cent
ENCODING 162
SWIDTH 556 0
DWIDTH 28 0
BBX 25 46 1 -10
BITMAP
00003000
00003000
00007000
00007000
00007000
0000E000
0000E000
0000E000
0001C000
001FC000
01FFE000
03FFF000
07FFF800
0FC3FC00
1F83FE00
1F073E00
3E071E00
3E071E00
3C070000
3C0E0000
7C0E0000
7C0E0000
7C1C0000
7C1C0000
7C1C0000
7C1C0000
3C380000
3C381F00
3E381F00
3E301E00
1F703E00
1FF07C00
0FF0FC00
07FFF800
03FFF000
01FFC000
01FF0000
01C00000
01C00000
01C00000
03800000
03800000
03800000
07000000
07000000
07000000
ENDCHAR

STARTCHAR sterling
ENCODING 163
SWIDTH 556 0
DWIDTH 28 0
BBX 29 37 -1 0
BITMAP
000FC000
003FF800
00FFFC00
01FFFE00
03F03F00
07E01F80
07C00F80
078007C0
0F8007C0
0F8003C0
0F800000
0F800000
0F800000
0F800000
07C00000
07C00000
07C00000
3FFFC000
3FFFC000
3FFFC000
3FFFC000
01F00000
01F00000
01F00000
01F00000
01E00000
01E00000
01E00000
03C00000
03C00000
07800000
0F180000
1FFF80C0
3FFFFFE0
3FFFFFE0
1E03FFE0
18003F80
ENDCHAR

STARTCHAR currency
ENCODING 164
SWIDTH 556 0
DWIDTH 28 0
BBX 27 23 0 6
BITMAP
18000300
3C3F8780
3EFFEF80
1FFFFF00
0FFFFE00
07E0FC00
0FC07E00
0F801E00
1F001F00
1E000F00
1E000F00
1E000F00
1E000F00
1E000F00
1F001F00
0F001E00
0FC03E00
07E0FC00
0FFFFE00
1FFFFF00
3EFFEF80
3C3F8780
18000300
ENDCHAR

STARTCHAR yen
ENCODING 165
SWIDTH 556 0
DWIDTH 28 0
BBX 30 36 -1 0
BITMAP
7C0001F8
3E0001F0
1E0003E0
1F0003E0
0F8007C0
0F8007C0
07C00F80
07C00F80
03E01F00
01E01E00
01F03E00
00F87C00
00F87C00
007CF800
007CF800
003FF000
001FE000
1FFFFFE0
1FFFFFE0
1FFFFFE0
1FFFFFE0
00078000
00078000
00078000
00078000
1FFFFFE0
1FFFFFE0
1FFFFFE0
00078000
00078000
00078000
00078000
00078000
00078000
00078000
00078000
ENDCHAR

STARTCHAR brokenbar
ENCODING 166
SWIDTH 260 0
DWIDTH 13 0
BBX 6 46 4 -10
BITMAP
78
78
78
78
78
78
78
78
78
78
78
78
78
78
78
78
78
78
78
00
00
00
00
00
00
00
00
78
78
78
78
78
78
78
78
78
78
78
78
78
78
78
78
78
78
78
ENDCHAR

STARTCHAR section
ENCODING 167
SWIDTH 556 0
DWIDTH 28 0
BBX 26 47 1 -11
BITMAP
007E0000
01FFC000
07FFE000
0FFFF000
0F81F800
1F00F800
1E007C00
1E007C00
1E007C00
1F000000
0F800000
0FC00000
07E00000
03F80000
07FC0000
0FFF0000
1E3FC000
3C1FE000
7807F000
7803FC00
7800FE00
78007E00
7C003F00
3C001F00
3F000F00
1F800F00
0FC00F00
07F00F00
03FC1E00
01FE3E00
007FF800
003FF000
000FE000
0003F000
0001F800
0000FC00
00007C00
00003E00
1E003E00
1F003E00
1F003E00
0F807C00
0FC0FC00
07FFF800
03FFF000
01FFE000
003F0000
ENDCHAR

STARTCHAR dieresis
ENCODING 168
SWIDTH 333 0
DWIDTH 17 0
BBX 16 5 0 31
BITMAP
7C3E
7C3E
7C3E
7C3E
7C3E
ENDCHAR

STARTCHAR copyright
ENCODING 169
SWIDTH 737 0
DWIDTH 37 0
BBX 41 37 -2 -1
BITMAP
0000FF800000
0007FFF00000
001FFFFC0000
003F80FF0000
00FC001F8000
01F00007C000
03E00003E000
03C00001F000
07803F00F000
0F01FFC07800
0E03FFE03800
1E07C1F03C00
1C0F00781C00
1C0F00381C00
3C1E00001E00
381E00000E00
381C00000E00
381C00000E00
381C00000E00
381C00000E00
381C00000E00
381E00200E00
3C1E00381E00
1C0F00381C00
1C0F00781C00
1E07C1F03C00
0E03FFE03800
0F01FFC07800
07803F00F000
03C00001E000
01E00003E000
01F00007C000
007C001F8000
003F80FE0000
001FFFFC0000
0007FFF00000
0000FF800000
ENDCHAR

STARTCHAR ordfeminine
ENCODING 170
SWIDTH 370 0
DWIDTH 19 0
BBX 19 18 0 18
BITMAP
03F800
0FFE00
1FFF00
3E0F00
3C0700
080780
000780
01FF80
0FFF80
3FFF80
3E0780
780780
780780
780F80
3C3F80
3FFF80
1FF380
07C000
ENDCHAR

STARTCHAR guillemotleft
ENCODING 171
SWIDTH 556 0
DWIDTH 28 0
BBX 24 22 2 2
BITMAP
00783C
00F038
01E078
01E0F0
03C0F0
07C1E0
0783E0
0F07C0
1F0780
1E0F80
3E1F00
3E1F00
3E0F80
1F0780
0F07C0
0F83C0
07C1E0
03C1F0
01E0F0
01E078
00F078
00703C
ENDCHAR

STARTCHAR logicalnot
ENCODING 172
SWIDTH 584 0
DWIDTH 29 0
BBX 27 15 1 10
BITMAP
7FFFFF80
7FFFFF80
7FFFFF80
7FFFFF80
00000780
00000780
00000780
00000780
00000780
00000780
00000780
00000780
00000780
00000780
00000780
ENDCHAR

STARTCHAR hyphen
ENCODING 173
SWIDTH 333 0
DWIDTH 17 0
BBX 17 4 0 11
BITMAP
3FFE00
3FFE00
3FFE00
3FFE00
ENDCHAR

STARTCHAR registered
ENCODING 174
SWIDTH 737 0
DWIDTH 37 0
BBX 40 37 -2 -1
BITMAP
0000FF0000
0007FFE000
001FFFF800
003F00FE00
00FC003F00
01F0000F80
03E00007C0
03C00003E0
07800001E0
0F0FFF00F0
0E0FFF8070
1E0FFFC078
1C0E03E038
1C0E01E038
1C0E00E03C
380E00E01C
380E01E01C
380E03C01C
380FFFC01C
380FFF001C
380FFC001C
380E0E001C
380E07001C
1C0E07803C
1C0E03C038
1E0E01C038
0E0E01E078
0F0E00F0F0
070E00F0E0
07800001E0
03C00003C0
01F0000F80
00FC001F00
007F00FE00
001FFFF800
0007FFE000
0000FF0000
ENDCHAR

STARTCHAR macron
ENCODING 175
SWIDTH 333 0
DWIDTH 17 0
BBX 18 4 -1 30
BITMAP
3FFF80
3FFF80
3FFF80
3FFF80
ENDCHAR

STARTCHAR degree
ENCODING 176
SWIDTH 400 0
DWIDTH 20 0
BBX 16 14 2 23
BITMAP
03C0
0FF0
1FF8
3C3C
381C
700E
700E
700E
700E
381C
3C3C
1FF8
0FF0
03C0
ENDCHAR

STARTCHAR plusminus
ENCODING 177
SWIDTH 584 0
DWIDTH 29 0
BBX 26 30 2 0
BITMAP
001E0000
001E0000
001E0000
001E0000
001E0000
001E0000
001E0000
001E0000
001E0000
001E0000
7FFFFF80
7FFFFF80
7FFFFF80
7FFFFF80
001E0000
001E0000
001E0000
001E0000
001E0000
001E0000
001E0000
001E0000
001E0000
001E0000
00000000
00000000
7FFFFF80
7FFFFF80
7FFFFF80
7FFFFF80
ENDCHAR

STARTCHAR twosuperior
ENCODING 178
SWIDTH 333 0
DWIDTH 17 0
BBX 19 18 -1 18
BITMAP
01F800
07FE00
0FFF00
1E0F80
1C0780
040780
000780
000F00
001F00
003E00
00FC00
01F000
03E000
078000
0F0000
1FFF80
3FFF80
3FFF80
ENDCHAR

STARTCHAR threesuperior
ENCODING 179
SWIDTH 333 0
DWIDTH 17 0
BBX 18 19 -1 17
BITMAP
03F000
0FFC00
1FFE00
1E1F00
3C0F00
000F00
000E00
007E00
00F800
00FE00
000F00
000780
000780
0C0780
3C0780
1E1F00
1FFF00
0FFE00
03F800
ENDCHAR

STARTCHAR acute
ENCODING 180
SWIDTH 333 0
DWIDTH 17 0
BBX 12 7 4 29
BITMAP
0FC0
0F80
0F80
1F00
1E00
3C00
3800
ENDCHAR

STARTCHAR mu
ENCODING 181
SWIDTH 556 0
DWIDTH 28 0
BBX 25 36 1 -10
BITMAP
3C001E00
3C001E00
3C001E00
3C001E00
3C001E00
3C001E00
3C001E00
3C001E00
3C001E00
3C001E00
3C001E00
3C001E00
3C001E00
3C001E00
3C001E00
3C001E00
3C001E00
3E001E00
3E003E00
3E003E00
3F007E00
3F80FE00
3FC1FE00
3FFFFE00
3DFFDE00
3CFF9E00
3C3F0000
3C000000
3C000000
3C000000
3C000000
3C000000
3C000000
3C000000
3C000000
3C000000
ENDCHAR

STARTCHAR paragraph
ENCODING 182
SWIDTH 537 0
DWIDTH 27 0
BBX 30 46 -1 -10
BITMAP
00FFFFF8
03FFFFF8
0FFFFFF8
1FFFFFF8
1FFE0780
3FFE0780
3FFE0780
7FFE0780
7FFE0780
7FFE0780
7FFE0780
7FFE0780
7FFE0780
3FFE0780
3FFE0780
1FFE0780
1FFE0780
0FFE0780
03FE0780
00FE0780
001E0780
001E0780
001E0780
001E0780
001E0780
001E0780
001E0780
001E0780
001E0780
001E0780
001E0780
001E0780
001E0780
001E0780
001E0780
001E0780
001E0780
001E0780
001E0780
001E0780
001E0780
001E0780
001E0780
001E0780
001E0780
001E0780
ENDCHAR

STARTCHAR periodcentered
ENCODING 183
SWIDTH 278 0
DWIDTH 14 0
BBX 8 5 3 15
BITMAP
7C
7C
7C
7C
7C
ENDCHAR

STARTCHAR cedilla
ENCODING 184
SWIDTH 333 0
DWIDTH 17 0
BBX 14 11 1 -10
BITMAP
0780
0700
0700
0FC0
07E0
00F0
00F0
01F0
3FE0
3FC0
3F00
ENDCHAR

STARTCHAR onesuperior
ENCODING 185
SWIDTH 333 0
DWIDTH 17 0
BBX 12 18 1 18
BITMAP
00E0
03E0
07E0
0FE0
3FE0
3DE0
31E0
01E0
01E0
01E0
01E0
01E0
01E0
01E0
01E0
01E0
01E0
01E0
ENDCHAR

STARTCHAR ordmasculine
ENCODING 186
SWIDTH 365 0
DWIDTH 18 0
BBX 18 18 0 18
BITMAP
03F000
0FFC00
1FFE00
1E1F00
3C0F00
380700
780780
780780
780780
780780
780780
780780
380700
3C0F00
1E1E00
1FFE00
0FFC00
03F000
ENDCHAR

STARTCHAR guillemotright
ENCODING 187
SWIDTH 556 0
DWIDTH 28 0
BBX 24 22 2 2
BITMAP
3C1E00
3C0F00
1E0F00
0F0780
0F03C0
0783E0
07C1E0
03C1F0
03E0F8
01F0F8
00F07C
00F87C
01F078
01E0F8
03E0F0
07C1E0
0783E0
0F03C0
0F0780
1E0780
1C0F00
3C0E00
ENDCHAR

STARTCHAR onequarter
ENCODING 188
SWIDTH 834 0
DWIDTH 42 0
BBX 42 38 1 -1
BITMAP
00000000F000
01E00000E000
03E00001E000
07E00003C000
1FE000078000
3FE000078000
3DE0000F0000
31E0001E0000
01E0001C0000
01E0003C0000
01E000780000
01E000F00000
01E000F00000
01E001E00000
01E003C00000
01E003800000
01E007800000
01E00F000000
01E01E000000
00001E001C00
00003C003C00
000078007C00
00007000FC00
0000F001FC00
0001E003FC00
0003C007FC00
0003C007BC00
0007800F3C00
000F001E3C00
000E003C3C00
001E00783C00
003C007FFF00
0078007FFF00
0078007FFF00
00F000003C00
01E000003C00
01C000003C00
03C000003C00
ENDCHAR

STARTCHAR onehalf
ENCODING 189
SWIDTH 834 0
DWIDTH 42 0
BBX 42 38 1 -2
BITMAP
00E00001E000
01E00001E000
03E00003C000
07E000078000
1FE000070000
3FE0000F0000
39E0001E0000
21E0003C0000
01E0003C0000
01E000780000
01E000F00000
01E000E00000
01E001E00000
01E003C00000
01E007800000
01E007000000
01E00F000000
01E01E000000
01E01C000000
00003C03F000
0000780FFC00
0000F01FFE00
0000E03C1F00
0001E0380F00
0003C0080F00
000780000F00
000780001E00
000F00003E00
001E00007C00
001C0001F800
003C0003E000
00780007C000
00F0000F0000
00F0001E0000
01E0003FFF00
03C0007FFF00
0380007FFF00
078000000000
ENDCHAR

STARTCHAR threequarters
ENCODING 190
SWIDTH 834 0
DWIDTH 42 0
BBX 44 38 -1 -1
BITMAP
03F000003C00
0FFC00007800
1FFE00007000
1E1F0000F000
3C0F0001E000
000F0001C000
000F0003C000
007E00078000
00F8000F0000
00FE000E0000
000F001E0000
0007803C0000
000780380000
0C0780780000
3C0780F00000
1E1F01E00000
1FFF01E00000
0FFE03C00000
03F807800000
000007000F00
00000F001F00
00001E001F00
00003C003F00
00003C007F00
00007800FF00
0000F001EF00
0000E003EF00
0001E003CF00
0003C0078F00
0003800F0F00
0007801E0F00
000F001FFFC0
001E001FFFC0
001E001FFFC0
003C00000F00
007800000F00
007000000F00
00F000000F00
ENDCHAR

STARTCHAR questiondown
ENCODING 191
SWIDTH 611 0
DWIDTH 31 0
BBX 26 37 3 -11
BITMAP
003E0000
003E0000
003E0000
003E0000
003E0000
00000000
00000000
00000000
00000000
001E0000
001E0000
003E0000
003E0000
003C0000
003C0000
007C0000
00F80000
01F00000
03F00000
07E00000
0F800000
1F000000
3E000000
3E000000
3C000000
7C000000
7C001F00
7C001F00
7C001F00
3C003E00
3E003E00
1F007C00
1FC0FC00
0FFFF800
07FFF000
01FFC000
003E0000
ENDCHAR

STARTCHAR Agrave
ENCODING 192
SWIDTH 667 0
DWIDTH 33 0
BBX 37 45 -2 0
BITMAP
0007E00000
0003E00000
0001F00000
0000F00000
0000780000
0000780000
0000000000
0000000000
0000000000
0001F80000
0001F80000
0001FC0000
0003FC0000
0003FE0000
0003DE0000
00079E0000
00079F0000
000F8F0000
000F8F8000
000F0F8000
001F078000
001E07C000
001E03C000
003E03E000
003C03E000
007C01E000
007C01F000
007801F000
00F800F800
00F000F800
01FFFFFC00
01FFFFFC00
01FFFFFC00
03FFFFFE00
03E0003E00
03C0003F00
07C0001F00
07C0001F00
0F80000F80
0F80000F80
0F80000FC0
1F000007C0
1F000007C0
3E000007E0
3E000003E0
ENDCHAR

STARTCHAR Aacute
ENCODING 193
SWIDTH 667 0
DWIDTH 33 0
BBX 37 45 -2 0
BITMAP
00001F0000
00003E0000
00003E0000
00007C0000
0000780000
0000F00000
0000000000
0000000000
0000000000
0001F80000
0001F80000
0001FC0000
0003FC0000
0003FE0000
0003DE0000
00079E0000
00079F0000
000F8F0000
000F8F8000
000F0F8000
001F078000
001E07C000
001E03C000
003E03E000
003C03E000
007C01E000
007C01F000
007801F000
00F800F800
00F000F800
01FFFFFC00
01FFFFFC00
01FFFFFC00
03FFFFFE00
03E0003E00
03C0003F00
07C0001F00
07C0001F00
0F80000F80
0F80000F80
0F80000FC0
1F000007C0
1F000007C0
3E000007E0
3E000003E0
ENDCHAR

STARTCHAR Acircumflex
ENCODING 194
SWIDTH 667 0
DWIDTH 33 0
BBX 37 45 -2 0
BITMAP
0000FC0000
0001FC0000
0003FE0000
0007DF0000
000F8F8000
000F87C000
0000000000
0000000000
0000000000
0001F80000
0001F80000
0001FC0000
0003FC0000
0003FE0000
0003DE0000
00079E0000
00079F0000
000F8F0000
000F8F8000
000F0F8000
001F078000
001E07C000
001E03C000
003E03E000
003C03E000
007C01E000
007C01F000
007801F000
00F800F800
00F000F800
01FFFFFC00
01FFFFFC00
01FFFFFC00
03FFFFFE00
03E0003E00
03C0003F00
07C0001F00
07C0001F00
0F80000F80
0F80000F80
0F80000FC0
1F000007C0
1F000007C0
3E000007E0
3E000003E0
ENDCHAR

STARTCHAR Atilde
ENCODING 195
SWIDTH 667 0
DWIDTH 33 0
BBX 37 44 -2 0
BITMAP
0007C1E000
000FF1E000
001FFFC000
001C7FC000
001C1F8000
0000000000
0000000000
0000000000
0001F80000
0001F80000
0001FC0000
0003FC0000
0003FE0000
0003DE0000
00079E0000
00079F0000
000F8F0000
000F8F8000
000F0F8000
001F078000
001E07C000
001E03C000
003E03E000
003C03E000
007C01E000
007C01F000
007801F000
00F800F800
00F000F800
01FFFFFC00
01FFFFFC00
01FFFFFC00
03FFFFFE00
03E0003E00
03C0003F00
07C0001F00
07C0001F00
0F80000F80
0F80000F80
0F80000FC0
1F000007C0
1F000007C0
3E000007E0
3E000003E0
ENDCHAR

STARTCHAR Adieresis
ENCODING 196
SWIDTH 667 0
DWIDTH 33 0
BBX 36 45 -1 0
BITMAP
001F0F8000
001F0F8000
001F0F8000
001F0F8000
001F0F8000
0000000000
0000000000
0000000000
0000000000
0001F00000
0003F80000
0003F80000
0003FC0000
0007BC0000
0007BC0000
0007BE0000
000F9E0000
000F1F0000
001F1F0000
001F0F0000
001E0F8000
003E0F8000
003C07C000
003C07C000
007C03C000
007803E000
00F803E000
00F801F000
00F001F000
01F001F000
01FFFFF800
03FFFFF800
03FFFFFC00
03FFFFFC00
07C0007C00
07C0003E00
0780003E00
0F80003F00
0F80001F00
1F00001F00
1F00000F80
1F00000F80
3E00000FC0
3E000007C0
7E000007E0
ENDCHAR

STARTCHAR Aring
ENCODING 197
SWIDTH 667 0
DWIDTH 33 0
BBX 37 46 -2 0
BITMAP
0000700000
0001FC0000
00018C0000
0003060000
0003060000
0003060000
00018C0000
0001FC0000
0000700000
0000000000
0001F80000
0001F80000
0001FC0000
0003FC0000
0003FC0000
0007FE0000
00079E0000
00079F0000
000F9F0000
000F0F0000
001F0F8000
001F078000
001E07C000
003E07C000
003C03E000
003C03E000
007C03E000
007801F000
00F801F000
00F800F800
00F000F800
01FFFFF800
01FFFFFC00
01FFFFFC00
03FFFFFE00
03C0003E00
07C0003E00
07C0001F00
0780001F00
0F80001F80
0F80000F80
1F00000F80
1F000007C0
1F000007C0
3E000007E0
3E000003E0
ENDCHAR

STARTCHAR AE
ENCODING 198
SWIDTH 1000 0
DWIDTH 50 0
BBX 50 35 -1 0
BITMAP
00003FFFFFFF00
00003FFFFFFF00
00007FFFFFFF00
00007FFFFFFF00
0000F87C000000
0000F87C000000
0001F07C000000
0001F07C000000
0003E07C000000
0003E07C000000
0007C07C000000
0007C07C000000
000F807C000000
000F807C000000
001F007C000000
001F007FFFFE00
003E007FFFFE00
003E007FFFFE00
007C007FFFFE00
007C007C000000
00F8007C000000
00FFFFFC000000
01FFFFFC000000
01FFFFFC000000
03FFFFFC000000
03E0007C000000
03E0007C000000
07C0007C000000
07C0007C000000
0F80007C000000
0F80007C000000
1F00007FFFFF80
1F00007FFFFF80
3E00007FFFFF80
3E00007FFFFF80
ENDCHAR

STARTCHAR Ccedilla
ENCODING 199
SWIDTH 722 0
DWIDTH 36 0
BBX 34 47 2 -11
BITMAP
0007FC0000
001FFF8000
007FFFE000
01FFFFF000
03FC07F800
07F001FC00
0FC0007C00
0F80007E00
1F80003E00
1F00001F00
3E00001F00
3E00001000
3E00000000
3C00000000
7C00000000
7C00000000
7C00000000
7C00000000
7C00000000
7C00000000
7C00000000
7C00000000
7C00000000
3C00000000
3E00000C00
3E00001F80
3E00001F00
1F00001F00
1F80003E00
0F80007E00
0FC000FC00
07F001FC00
03FC07F800
01FFFFF000
00FFFFC000
003FFF8000
0007FC0000
0001C00000
0001E00000
0003F80000
0000FC0000
00003C0000
00003C0000
00007C0000
001FF80000
001FF00000
001FC00000
ENDCHAR

STARTCHAR Egrave
ENCODING 200
SWIDTH 667 0
DWIDTH 33 0
BBX 29 44 3 0
BITMAP
007E0000
003E0000
001F0000
000F0000
000F8000
00078000
00000000
00000000
00000000
7FFFFFE0
7FFFFFE0
7FFFFFE0
7FFFFFE0
7C000000
7C000000
7C000000
7C000000
7C000000
7C000000
7C000000
7C000000
7C000000
7C000000
7C000000
7FFFFFC0
7FFFFFC0
7FFFFFC0
7FFFFFC0
7C000000
7C000000
7C000000
7C000000
7C000000
7C000000
7C000000
7C000000
7C000000
7C000000
7C000000
7C000000
7FFFFFF0
7FFFFFF0
7FFFFFF0
7FFFFFF0
ENDCHAR

STARTCHAR Eacute
ENCODING 201
SWIDTH 667 0
DWIDTH 33 0
BBX 29 44 3 0
BITMAP
0003F000
0003E000
0007C000
0007C000
00078000
000F0000
00000000
00000000
00000000
7FFFFFE0
7FFFFFE0
7FFFFFE0
7FFFFFE0
7C000000
7C000000
7C000000
7C000000
7C000000
7C000000
7C000000
7C000000
7C000000
7C000000
7C000000
7FFFFFC0
7FFFFFC0
7FFFFFC0
7FFFFFC0
7C000000
7C000000
7C000000
7C000000
7C000000
7C000000
7C000000
7C000000
7C000000
7C000000
7C000000
7C000000
7FFFFFF0
7FFFFFF0
7FFFFFF0
7FFFFFF0
ENDCHAR

STARTCHAR Ecircumflex
ENCODING 202
SWIDTH 667 0
DWIDTH 33 0
BBX 29 44 3 0
BITMAP
001FC000
001FC000
003DE000
007DF000
00F8F800
01F07C00
00000000
00000000
00000000
7FFFFFE0
7FFFFFE0
7FFFFFE0
7FFFFFE0
7C000000
7C000000
7C000000
7C000000
7C000000
7C000000
7C000000
7C000000
7C000000
7C000000
7C000000
7FFFFFC0
7FFFFFC0
7FFFFFC0
7FFFFFC0
7C000000
7C000000
7C000000
7C000000
7C000000
7C000000
7C000000
7C000000
7C000000
7C000000
7C000000
7C000000
7FFFFFF0
7FFFFFF0
7FFFFFF0
7FFFFFF0
ENDCHAR

STARTCHAR Edieresis
ENCODING 203
SWIDTH 667 0
DWIDTH 33 0
BBX 29 45 3 0
BITMAP
01F0F800
01F0F800
01F0F800
01F0F800
01F0F800
00000000
00000000
00000000
00000000
00000000
7FFFFFE0
7FFFFFE0
7FFFFFE0
7FFFFFE0
7C000000
7C000000
7C000000
7C000000
7C000000
7C000000
7C000000
7C000000
7C000000
7C000000
7C000000
7FFFFF80
7FFFFF80
7FFFFF80
7FFFFF80
7C000000
7C000000
7C000000
7C000000
7C000000
7C000000
7C000000
7C000000
7C000000
7C000000
7C000000
7C000000
7FFFFFE0
7FFFFFE0
7FFFFFE0
7FFFFFE0
ENDCHAR

STARTCHAR Igrave
ENCODING 204
SWIDTH 278 0
DWIDTH 14 0
BBX 12 45 -1 0
BITMAP
3F00
1F00
0F80
0780
07C0
03C0
0000
0000
0000
07C0
07C0
07C0
07C0
07C0
07C0
07C0
07C0
07C0
07C0
07C0
07C0
07C0
07C0
07C0
07C0
07C0
07C0
07C0
07C0
07C0
07C0
07C0
07C0
07C0
07C0
07C0
07C0
07C0
07C0
07C0
07C0
07C0
07C0
07C0
07C0
ENDCHAR

STARTCHAR Iacute
ENCODING 205
SWIDTH 278 0
DWIDTH 14 0
BBX 12 45 2 0
BITMAP
0FC0
0F80
0F00
1F00
1E00
3C00
0000
0000
0000
3E00
3E00
3E00
3E00
3E00
3E00
3E00
3E00
3E00
3E00
3E00
3E00
3E00
3E00
3E00
3E00
3E00
3E00
3E00
3E00
3E00
3E00
3E00
3E00
3E00
3E00
3E00
3E00
3E00
3E00
3E00
3E00
3E00
3E00
3E00
3E00
ENDCHAR

STARTCHAR Icircumflex
ENCODING 206
SWIDTH 278 0
DWIDTH 14 0
BBX 19 45 -3 0
BITMAP
03F000
03F800
07BC00
0FBE00
1F1F00
1E0F00
000000
000000
000000
01F000
01F000
01F000
01F000
01F000
01F000
01F000
01F000
01F000
01F000
01F000
01F000
01F000
01F000
01F000
01F000
01F000
01F000
01F000
01F000
01F000
01F000
01F000
01F000
01F000
01F000
01F000
01F000
01F000
01F000
01F000
01F000
01F000
01F000
01F000
01F000
ENDCHAR

STARTCHAR Idieresis
ENCODING 207
SWIDTH 278 0
DWIDTH 14 0
BBX 16 45 -1 0
BITMAP
7C3E
7C3E
7C3E
7C3E
7C3E
0000
0000
0000
0000
07C0
07C0
07C0
07C0
07C0
07C0
07C0
07C0
07C0
07C0
07C0
07C0
07C0
07C0
07C0
07C0
07C0
07C0
07C0
07C0
07C0
07C0
07C0
07C0
07C0
07C0
07C0
07C0
07C0
07C0
07C0
07C0
07C0
07C0
07C0
07C0
ENDCHAR

STARTCHAR Gbreve
ENCODING 208
SWIDTH 778 0
DWIDTH 39 0
BBX 35 45 2 -1
BITMAP
003C070000
001C070000
001E0F0000
000FFE0000
0007FC0000
0003F00000
0000000000
0000000000
0003FF0000
001FFFC000
007FFFF000
00FFFFF800
03FE01FC00
03F0007E00
07E0003F00
0FC0001F00
1F80000F80
1F00000F80
1F00000780
3E00000000
3E00000000
3C00000000
7C00000000
7C00000000
7C00000000
7C00000000
7C001FFFC0
7C001FFFC0
7C001FFFC0
7C001FFFC0
7C000007C0
3E000007C0
3E000007C0
3E000007C0
1F000007C0
1F000007C0
0F800007C0
0FC00007C0
07E0001FC0
03F8007FC0
01FF03FF00
00FFFFFE00
007FFFF800
001FFFE000
0003FF0000
ENDCHAR

STARTCHAR Ntilde
ENCODING 209
SWIDTH 722 0
DWIDTH 36 0
BBX 31 44 3 0
BITMAP
003E0F00
007F8F00
00FFFE00
01E3FE00
01E0F800
00000000
00000000
00000000
7E00007C
7E00007C
7F00007C
7F80007C
7F80007C
7FC0007C
7FE0007C
7FE0007C
7FF0007C
7DF8007C
7CF8007C
7CFC007C
7C7E007C
7C3E007C
7C3F007C
7C1F807C
7C0F807C
7C0FC07C
7C07E07C
7C03E07C
7C03F07C
7C01F87C
7C00F87C
7C00FC7C
7C007E7C
7C003E7C
7C003F7C
7C001FFC
7C000FFC
7C0007FC
7C0007FC
7C0003FC
7C0001FC
7C0001FC
7C0000FC
7C00007C
ENDCHAR

STARTCHAR Ograve
ENCODING 210
SWIDTH 778 0
DWIDTH 39 0
BBX 36 46 1 -1
BITMAP
000FC00000
0007C00000
0003E00000
0001E00000
0001F00000
0000F00000
0000780000
0000000000
0000000000
0007FC0000
001FFF8000
007FFFE000
00FFFFF800
03FC03FC00
03F000FE00
07E0007E00
0FC0003F00
1F80001F80
1F00000F80
1F00000FC0
3E000007C0
3E000007C0
3E000003E0
7C000003E0
7C000003E0
7C000003E0
7C000003E0
7C000003E0
7C000003E0
7C000003E0
7C000003E0
7C000003E0
3E000003E0
3E000007C0
3E000007C0
1F000007C0
1F00000F80
0F80001F80
0FC0003F00
07E0007E00
03F000FE00
01FE03FC00
00FFFFF000
007FFFE000
001FFF8000
0003FE0000
ENDCHAR

STARTCHAR Oacute
ENCODING 211
SWIDTH 778 0
DWIDTH 39 0
BBX 36 46 1 -1
BITMAP
00003F0000
00003E0000
00007C0000
0000780000
0000F80000
0000F00000
0001E00000
0000000000
0000000000
0007FC0000
001FFF8000
007FFFE000
00FFFFF800
03FC03FC00
03F000FE00
07E0007E00
0FC0003F00
1F80001F80
1F00000F80
1F00000FC0
3E000007C0
3E000007C0
3E000003E0
7C000003E0
7C000003E0
7C000003E0
7C000003E0
7C000003E0
7C000003E0
7C000003E0
7C000003E0
7C000003E0
3E000003E0
3E000007C0
3E000007C0
1F000007C0
1F00000F80
0F80001F80
0FC0003F00
07E0007E00
03F000FE00
01FE03FC00
00FFFFF000
007FFFE000
001FFF8000
0003FE0000
ENDCHAR

STARTCHAR Ocircumflex
ENCODING 212
SWIDTH 778 0
DWIDTH 39 0
BBX 36 46 1 -1
BITMAP
0001F00000
0001F80000
0003FC0000
0007FE0000
000F9F0000
000F0F0000
001F0F8000
0000000000
0000000000
0007FC0000
001FFF8000
007FFFE000
00FFFFF800
03FC03FC00
03F000FE00
07E0007E00
0FC0003F00
1F80001F80
1F00000F80
1F00000FC0
3E000007C0
3E000007C0
3E000003E0
7C000003E0
7C000003E0
7C000003E0
7C000003E0
7C000003E0
7C000003E0
7C000003E0
7C000003E0
7C000003E0
3E000003E0
3E000007C0
3E000007C0
1F000007C0
1F00000F80
0F80001F80
0FC0003F00
07E0007E00
03F000FE00
01FE03FC00
00FFFFF000
007FFFE000
001FFF8000
0003FE0000
ENDCHAR

STARTCHAR Otilde
ENCODING 213
SWIDTH 778 0
DWIDTH 39 0
BBX 36 45 1 -1
BITMAP
0007C1C000
001FF3C000
001FFF8000
003C7F8000
00381F0000
0000000000
0000000000
0000000000
0007FC0000
001FFF8000
007FFFE000
00FFFFF800
03FC03FC00
03F000FE00
07E0007E00
0FC0003F00
1F80001F80
1F00000F80
1F00000FC0
3E000007C0
3E000007C0
3E000003E0
7C000003E0
7C000003E0
7C000003E0
7C000003E0
7C000003E0
7C000003E0
7C000003E0
7C000003E0
7C000003E0
3E000003E0
3E000007C0
3E000007C0
1F000007C0
1F00000F80
0F80001F80
0FC0003F00
07E0007E00
03F000FE00
01FE03FC00
00FFFFF000
007FFFE000
001FFF8000
0003FE0000
ENDCHAR

STARTCHAR Odieresis
ENCODING 214
SWIDTH 778 0
DWIDTH 39 0
BBX 36 46 1 -1
BITMAP
001F0F8000
001F0F8000
001F0F8000
001F0F8000
001F0F8000
0000000000
0000000000
0000000000
0000000000
0007FC0000
003FFF8000
007FFFE000
01FFFFF800
03FC03FC00
07F000FE00
07E0007E00
0FC0003F00
1F80001F80
1F00000F80
1F00000FC0
3E000007C0
3E000007C0
3E000003E0
7C000003E0
7C000003E0
7C000003E0
7C000003E0
7C000003E0
7C000003E0
7C000003E0
7C000003E0
7C000003E0
3E000003E0
3E000007C0
3E000007C0
1F000007C0
1F00000F80
0F80001F80
0FC0003F00
07E0007E00
03F000FE00
01FE03FC00
00FFFFF000
007FFFE000
001FFF8000
0003FE0000
ENDCHAR

STARTCHAR multiply
ENCODING 215
SWIDTH 584 0
DWIDTH 29 0
BBX 25 21 2 7
BITMAP
0C001800
1E003C00
3F003E00
1F807C00
0FC0F800
07E1F000
03F3E000
01FFC000
00FF8000
007F0000
007F0000
00FF8000
01FFC000
03F7E000
07E3F000
0FC1F800
1F80FC00
3F007E00
3E003E00
1C001C00
08000800
ENDCHAR

STARTCHAR Oslash
ENCODING 216
SWIDTH 778 0
DWIDTH 39 0
BBX 38 37 0 -1
BITMAP
0001FF0060
000FFFC0F0
003FFFF1E0
007FFFFFC0
01FE01FFC0
03F8007F80
03F0003F00
07E0001F80
0FC0003FC0
0F80007FC0
0F8000F7E0
1F0001E3E0
1F0003E3E0
1F0007C3F0
3E000781F0
3E000F01F0
3E001E01F0
3E003C01F0
3E007801F0
3E00F001F0
3E01E001F0
3E03E001F0
3E03C001F0
1F078001F0
1F0F0003E0
1F1E0003E0
0FBC0007E0
0FF80007C0
07F0000FC0
07F0001F80
03F0003F00
03F8007F00
07FE01FE00
0F7FFFF800
1E3FFFF000
3C0FFFC000
1801FE0000
ENDCHAR

STARTCHAR Ugrave
ENCODING 217
SWIDTH 722 0
DWIDTH 36 0
BBX 30 45 3 -1
BITMAP
003E0000
001F0000
001F0000
000F8000
00078000
0003C000
00000000
00000000
00000000
7C0000F8
7C0000F8
7C0000F8
7C0000F8
7C0000F8
7C0000F8
7C0000F8
7C0000F8
7C0000F8
7C0000F8
7C0000F8
7C0000F8
7C0000F8
7C0000F8
7C0000F8
7C0000F8
7C0000F8
7C0000F8
7C0000F8
7C0000F8
7C0000F8
7C0000F8
7C0000F8
7C0000F8
7C0000F8
7C0000F8
3E0000F0
3E0001F0
3E0001F0
1F0003E0
1FC007E0
0FF03FC0
07FFFF80
03FFFF00
01FFFE00
003FF000
ENDCHAR

STARTCHAR Uacute
ENCODING 218
SWIDTH 722 0
DWIDTH 36 0
BBX 30 45 3 -1
BITMAP
0001F000
0001F000
0003E000
0003C000
00078000
00078000
00000000
00000000
00000000
7C0000F8
7C0000F8
7C0000F8
7C0000F8
7C0000F8
7C0000F8
7C0000F8
7C0000F8
7C0000F8
7C0000F8
7C0000F8
7C0000F8
7C0000F8
7C0000F8
7C0000F8
7C0000F8
7C0000F8
7C0000F8
7C0000F8
7C0000F8
7C0000F8
7C0000F8
7C0000F8
7C0000F8
7C0000F8
7C0000F8
3E0000F0
3E0001F0
3E0001F0
1F0003E0
1FC007E0
0FF03FC0
07FFFF80
03FFFF00
01FFFE00
003FF000
ENDCHAR

STARTCHAR Ucircumflex
ENCODING 219
SWIDTH 722 0
DWIDTH 36 0
BBX 30 45 3 -1
BITMAP
000FC000
001FE000
001FE000
003CF000
007CF800
00F87C00
00000000
00000000
00000000
7C0000F8
7C0000F8
7C0000F8
7C0000F8
7C0000F8
7C0000F8
7C0000F8
7C0000F8
7C0000F8
7C0000F8
7C0000F8
7C0000F8
7C0000F8
7C0000F8
7C0000F8
7C0000F8
7C0000F8
7C0000F8
7C0000F8
7C0000F8
7C0000F8
7C0000F8
7C0000F8
7C0000F8
7C0000F8
7C0000F8
3E0000F0
3E0001F0
3E0001F0
1F0003E0
1FC007E0
0FF03FC0
07FFFF80
03FFFF00
01FFFE00
003FF000
ENDCHAR

STARTCHAR Udieresis
ENCODING 220
SWIDTH 722 0
DWIDTH 36 0
BBX 30 45 3 -1
BITMAP
00F87C00
00F87C00
00F87C00
00F87C00
00F87C00
00000000
00000000
00000000
00000000
7C0000F8
7C0000F8
7C0000F8
7C0000F8
7C0000F8
7C0000F8
7C0000F8
7C0000F8
7C0000F8
7C0000F8
7C0000F8
7C0000F8
7C0000F8
7C0000F8
7C0000F8
7C0000F8
7C0000F8
7C0000F8
7C0000F8
7C0000F8
7C0000F8
7C0000F8
7C0000F8
7C0000F8
7C0000F8
7C0000F8
3E0000F0
3E0001F0
3E0001F0
1F0003E0
1F8007E0
0FF03FC0
07FFFF80
03FFFF00
01FFFE00
003FF000
ENDCHAR

STARTCHAR Idotaccent
ENCODING 221
SWIDTH 278 0
DWIDTH 14 0
BBX 9 44 2 0
BITMAP
3E00
3E00
3E00
3E00
3E00
0000
0000
0000
3E00
3E00
3E00
3E00
3E00
3E00
3E00
3E00
3E00
3E00
3E00
3E00
3E00
3E00
3E00
3E00
3E00
3E00
3E00
3E00
3E00
3E00
3E00
3E00
3E00
3E00
3E00
3E00
3E00
3E00
3E00
3E00
3E00
3E00
3E00
3E00
ENDCHAR

STARTCHAR Scedilla
ENCODING 222
SWIDTH 667 0
DWIDTH 33 0
BBX 31 47 1 -11
BITMAP
001FF800
00FFFE00
01FFFF80
03FFFFC0
07F01FE0
0FC007E0
0F8003F0
0F0001F0
1F0000F0
1F0000F8
1F0000F8
1F000000
0F800000
0FC00000
07F80000
07FF8000
03FFF800
00FFFF00
003FFFC0
0007FFE0
00007FF0
000007F0
000001F8
000000F8
0000007C
3C00007C
3E00007C
3E00007C
3E00007C
1F000078
1F8000F8
0FE003F0
07F80FF0
03FFFFE0
01FFFFC0
00FFFF00
001FFC00
0001C000
0001E000
0003F800
0000FC00
00003C00
00003C00
00007C00
001FF800
001FF000
001FC000
ENDCHAR

STARTCHAR germandbls
ENCODING 223
SWIDTH 611 0
DWIDTH 31 0
BBX 28 37 2 -1
BITMAP
007E0000
01FFC000
07FFE000
0FFFF000
1F81F800
1F00F800
3E007800
3E007800
3E007800
3C007800
3C00F000
3C00F000
3C01E000
3C01E000
3C03C000
3C03C000
3C07C000
3C07C000
3C07C000
3C03E000
3C03F800
3C01FC00
3C00FF00
3C003F80
3C001F80
3C000FC0
3C0007E0
3C0003E0
3C0003E0
3C0003E0
3C3C03E0
3C3E03C0
3C3F07C0
3C1FFF80
3C0FFF00
3C03FE00
0000F800
ENDCHAR

STARTCHAR agrave
ENCODING 224
SWIDTH 556 0
DWIDTH 28 0
BBX 26 36 1 -1
BITMAP
00F80000
00FC0000
007C0000
003C0000
001E0000
001E0000
000F0000
00000000
00000000
003F8000
01FFF000
07FFF800
0FFFFC00
1F807E00
1E003E00
3E003E00
3C001E00
00001E00
00001E00
00007E00
001FFE00
03FFFE00
0FFFFE00
1FFF1E00
1FE01E00
3F001E00
3C001E00
7C001E00
7C003E00
7C003E00
7C007E00
3E00FE00
3F87FF00
1FFFDF00
0FFF0F00
03FC0000
ENDCHAR

STARTCHAR aacute
ENCODING 225
SWIDTH 556 0
DWIDTH 28 0
BBX 26 36 1 -1
BITMAP
0007C000
000F8000
000F8000
000F0000
001E0000
001C0000
003C0000
00000000
00000000
003F8000
01FFF000
07FFF800
0FFFFC00
1F807E00
1E003E00
3E003E00
3C001E00
00001E00
00001E00
00007E00
001FFE00
03FFFE00
0FFFFE00
1FFF1E00
1FE01E00
3F001E00
3C001E00
7C001E00
7C003E00
7C003E00
7C007E00
3E00FE00
3F87FF00
1FFFDF00
0FFF0F00
03FC0000
ENDCHAR

STARTCHAR acircumflex
ENCODING 226
SWIDTH 556 0
DWIDTH 28 0
BBX 26 36 1 -1
BITMAP
003F0000
007F8000
00FF8000
00F3C000
01F3E000
03E1F000
07C0F000
00000000
00000000
003F8000
01FFF000
07FFF800
0FFFFC00
1F807E00
1E003E00
3E003E00
3C001E00
00001E00
00001E00
00007E00
001FFE00
03FFFE00
0FFFFE00
1FFF1E00
1FE01E00
3F001E00
3C001E00
7C001E00
7C003E00
7C003E00
7C007E00
3E00FE00
3F87FF00
1FFFDF00
0FFF0F00
03FC0000
ENDCHAR

STARTCHAR atilde
ENCODING 227
SWIDTH 556 0
DWIDTH 28 0
BBX 26 36 1 -1
BITMAP
01F03800
03FE7800
07FFF000
078FF000
0703E000
00000000
00000000
00000000
003F8000
01FFF000
07FFF800
0FFFFC00
1F807E00
1F003E00
3E003E00
3E001E00
0C001E00
00001E00
00003E00
0003FE00
00FFFE00
03FFFE00
0FFFDE00
1FFC1E00
3F801E00
3E001E00
7C001E00
7C001E00
7C003E00
7C007E00
7C007E00
3E01FE00
3F87FF00
1FFFDF00
0FFF0F00
03FC0000
ENDCHAR

STARTCHAR adieresis
ENCODING 228
SWIDTH 556 0
DWIDTH 28 0
BBX 26 37 1 -1
BITMAP
03E1F000
03E1F000
03E1F000
03E1F000
03E1F000
00000000
00000000
00000000
00000000
003F8000
01FFF000
07FFF800
0FFFFC00
1F807E00
1F003E00
3E003E00
3E001E00
0C001E00
00001E00
00003E00
0003FE00
00FFFE00
03FFFE00
0FFFDE00
1FFC1E00
3F801E00
3E001E00
7C001E00
7C001E00
7C003E00
7C003E00
7C007E00
3E01FE00
3F87FF00
1FFFCF00
0FFF8F00
03FC0000
ENDCHAR

STARTCHAR aring
ENCODING 229
SWIDTH 556 0
DWIDTH 28 0
BBX 27 38 0 -1
BITMAP
000E0000
003F8000
00318000
0060C000
0060C000
0060C000
00318000
003F8000
000E0000
00000000
001F8000
01FFF800
07FFFC00
0FFFFE00
1F807F00
1F001F00
3E001F00
3E000F00
0C000F00
00000F00
00001F00
0003FF00
007FFF00
03FFFF00
0FFFEF00
1FFC0F00
3F800F00
3E000F00
7C000F00
7C001F00
7C001F00
7C003F00
7E007F00
3E00FF00
3FC7FF80
1FFFEF80
0FFF8780
03FE0000
ENDCHAR

STARTCHAR ae
ENCODING 230
SWIDTH 889 0
DWIDTH 44 0
BBX 43 27 1 -1
BITMAP
007F800F8000
01FFF07FF000
07FFF9FFF800
0FFFFFFFFE00
1F807FE03E00
1F003FC01F00
3E003F800F80
3C001F000780
1C001F000780
00001E000780
00003E0007C0
0007FFFFFFC0
01FFFFFFFFC0
07FFFFFFFFC0
0FFF1FFFFFC0
1FC01E000000
3E001E000000
3C001F000000
7C001F0007C0
7C003F000780
7C007F800F80
7E00FFC01F00
3F01F7E03F00
1FFFE3FFFE00
1FFFC1FFFC00
07FF007FF000
01F8000FC000
ENDCHAR

STARTCHAR ccedilla
ENCODING 231
SWIDTH 500 0
DWIDTH 25 0
BBX 25 37 1 -10
BITMAP
003F0000
01FFC000
03FFF000
07FFF800
0FC0FC00
1F007C00
1F003E00
3E003E00
3E001E00
3C000000
3C000000
3C000000
7C000000
7C000000
7C000000
7C000000
7C000000
3C000000
3C001F00
3E001E00
3E001E00
1F003E00
1F007C00
0FC0F800
07FFF800
03FFF000
01FFC000
003E0000
00380000
003E0000
003F0000
00078000
00078000
000F8000
00FF8000
00FF0000
00FC0000
ENDCHAR

STARTCHAR egrave
ENCODING 232
SWIDTH 556 0
DWIDTH 28 0
BBX 27 36 0 -1
BITMAP
00FC0000
007E0000
003E0000
001E0000
000F0000
00070000
00078000
00000000
00000000
001F8000
00FFF000
01FFF800
03FFFC00
07E07E00
0F801F00
0F000F00
1F000F80
1E000780
3E000780
3E0007C0
3FFFFFC0
3FFFFFC0
3FFFFFC0
3FFFFFC0
3E000000
3E000000
3E000000
3E000700
1F000780
1F800F80
0F801F00
0FE03F00
07FFFE00
01FFFC00
00FFF000
001FC000
ENDCHAR

STARTCHAR eacute
ENCODING 233
SWIDTH 556 0
DWIDTH 28 0
BBX 27 36 0 -1
BITMAP
0003E000
0007E000
0007C000
000F8000
000F0000
001E0000
001E0000
00000000
00000000
001F8000
00FFF000
01FFF800
03FFFC00
07E07E00
0F801F00
0F000F00
1F000F80
1E000780
3E000780
3E0007C0
3FFFFFC0
3FFFFFC0
3FFFFFC0
3FFFFFC0
3E000000
3E000000
3E000000
3E000700
1F000780
1F800F80
0F801F00
0FE03F00
07FFFE00
01FFFC00
00FFF000
001FC000
ENDCHAR

STARTCHAR ecircumflex
ENCODING 234
SWIDTH 556 0
DWIDTH 28 0
BBX 27 36 0 -1
BITMAP
001F8000
003FC000
007FC000
0079E000
00F1F000
01F0F800
03E07C00
00000000
00000000
001F8000
00FFF000
01FFF800
03FFFC00
07E07E00
0F801F00
0F000F00
1F000F80
1E000780
3E000780
3E0007C0
3FFFFFC0
3FFFFFC0
3FFFFFC0
3FFFFFC0
3E000000
3E000000
3E000000
3E000700
1F000780
1F800F80
0F801F00
0FE03F00
07FFFE00
01FFFC00
00FFF000
001FC000
ENDCHAR

STARTCHAR edieresis
ENCODING 235
SWIDTH 556 0
DWIDTH 28 0
BBX 26 36 1 -1
BITMAP
03E1F000
03E1F000
03E1F000
03E1F000
03E1F000
00000000
00000000
00000000
00000000
001F0000
00FFE000
03FFF000
07FFF800
0FC0FC00
1F803E00
1F001F00
3E001F00
3E000F00
3C000F00
7C000F80
7FFFFF80
7FFFFF80
7FFFFF80
7FFFFF80
7C000000
7C000000
7C000000
3C000E00
3E000F80
3F001F00
1F803F00
0FC07E00
07FFFC00
03FFF800
01FFE000
001F8000
ENDCHAR

STARTCHAR igrave
ENCODING 236
SWIDTH 278 0
DWIDTH 14 0
BBX 13 36 -1 0
BITMAP
3F00
1F80
0F80
07C0
03C0
03E0
01E0
0000
0000
0000
03C0
03C0
03C0
03C0
03C0
03C0
03C0
03C0
03C0
03C0
03C0
03C0
03C0
03C0
03C0
03C0
03C0
03C0
03C0
03C0
03C0
03C0
03C0
03C0
03C0
03C0
ENDCHAR

STARTCHAR iacute
ENCODING 237
SWIDTH 278 0
DWIDTH 14 0
BBX 12 36 3 0
BITMAP
0FC0
0F80
1F00
1E00
3E00
3C00
7800
0000
0000
0000
3C00
3C00
3C00
3C00
3C00
3C00
3C00
3C00
3C00
3C00
3C00
3C00
3C00
3C00
3C00
3C00
3C00
3C00
3C00
3C00
3C00
3C00
3C00
3C00
3C00
3C00
ENDCHAR

STARTCHAR icircumflex
ENCODING 238
SWIDTH 278 0
DWIDTH 14 0
BBX 18 36 -2 0
BITMAP
03F000
07F800
07F800
0F3C00
1F3E00
3E1F00
7C0F80
000000
000000
000000
01E000
01E000
01E000
01E000
01E000
01E000
01E000
01E000
01E000
01E000
01E000
01E000
01E000
01E000
01E000
01E000
01E000
01E000
01E000
01E000
01E000
01E000
01E000
01E000
01E000
01E000
ENDCHAR

STARTCHAR idieresis
ENCODING 239
SWIDTH 278 0
DWIDTH 14 0
BBX 16 36 -1 0
BITMAP
7C3E
7C3E
7C3E
7C3E
7C3E
0000
0000
0000
0000
0000
03C0
03C0
03C0
03C0
03C0
03C0
03C0
03C0
03C0
03C0
03C0
03C0
03C0
03C0
03C0
03C0
03C0
03C0
03C0
03C0
03C0
03C0
03C0
03C0
03C0
03C0
ENDCHAR

STARTCHAR gbreve
ENCODING 240
SWIDTH 556 0
DWIDTH 28 0
BBX 26 47 0 -11
BITMAP
03807000
0380E000
03C1E000
01FFC000
00FFC000
003F0000
00000000
00000000
00000000
003E0000
01FF8F00
03FFEF00
07FFFF00
0FC0FF00
1F807F00
1F003F00
3E001F00
3E001F00
3C001F00
3C000F00
7C000F00
7C000F00
7C000F00
7C000F00
7C000F00
3C000F00
3C000F00
3E001F00
3E001F00
1F003F00
1F807F00
0FC0FF00
07FFFF00
03FFEF00
01FF8F00
003E0F00
00000F00
00001F00
30001F00
3E001E00
3E003E00
1F007E00
1F80FC00
0FFFF800
07FFF000
03FFE000
007F0000
ENDCHAR

STARTCHAR ntilde
ENCODING 241
SWIDTH 556 0
DWIDTH 28 0
BBX 25 35 1 0
BITMAP
01F07800
07FC7800
07FFF000
0F1FF000
0F07E000
00000000
00000000
00000000
001F8000
3C7FF000
3DFFF800
3FFFFC00
3FC0FC00
3F807E00
3F003E00
3E003E00
3E001E00
3C001E00
3C001E00
3C001E00
3C001E00
3C001E00
3C001E00
3C001E00
3C001E00
3C001E00
3C001E00
3C001E00
3C001E00
3C001E00
3C001E00
3C001E00
3C001E00
3C001E00
3C001E00
ENDCHAR

STARTCHAR ograve
ENCODING 242
SWIDTH 556 0
DWIDTH 28 0
BBX 27 36 0 -1
BITMAP
00FC0000
007C0000
003E0000
003E0000
001F0000
000F0000
00078000
00000000
00000000
001F8000
00FFE000
03FFF800
07FFFC00
0FC07E00
1F803F00
1F001F00
3E000F80
3E000F80
3C000780
3C0007C0
7C0007C0
7C0007C0
7C0007C0
7C0007C0
7C0007C0
7C0007C0
3C000780
3E000F80
3E000F80
1F001F00
1F803F00
0FC07E00
07FFFC00
03FFF800
00FFE000
003F0000
ENDCHAR

STARTCHAR oacute
ENCODING 243
SWIDTH 556 0
DWIDTH 28 0
BBX 27 36 0 -1
BITMAP
0003E000
0007C000
00078000
000F8000
000F0000
001E0000
001C0000
00000000
00000000
001F8000
00FFE000
03FFF800
07FFFC00
0FC07E00
1F803F00
1F001F00
3E000F80
3E000F80
3C000780
3C0007C0
7C0007C0
7C0007C0
7C0007C0
7C0007C0
7C0007C0
7C0007C0
3C000780
3E000F80
3E000F80
1F001F00
1F803F00
0FC07E00
07FFFC00
03FFF800
00FFE000
003F0000
ENDCHAR

STARTCHAR ocircumflex
ENCODING 244
SWIDTH 556 0
DWIDTH 28 0
BBX 27 36 0 -1
BITMAP
003F0000
003F8000
007BC000
00FBE000
01F1F000
01E0F000
03E0F800
00000000
00000000
001F8000
00FFE000
03FFF800
07FFFC00
0FC07E00
1F803F00
1F001F00
3E000F80
3E000F80
3C000780
3C0007C0
7C0007C0
7C0007C0
7C0007C0
7C0007C0
7C0007C0
7C0007C0
3C000780
3E000F80
3E000F80
1F001F00
1F803F00
0FC07E00
07FFFC00
03FFF800
00FFE000
003F0000
ENDCHAR

STARTCHAR otilde
ENCODING 245
SWIDTH 556 0
DWIDTH 28 0
BBX 27 36 0 -1
BITMAP
00F83C00
01FE3C00
03FFF800
038FF800
0783E000
00000000
00000000
00000000
001F8000
00FFE000
03FFF800
07FFFC00
0FC07E00
1F803F00
1F001F00
3E000F80
3E000F80
3C000780
3C0007C0
7C0007C0
7C0007C0
7C0007C0
7C0007C0
7C0007C0
7C0007C0
3C000780
3C000780
3E000F80
3E000F80
1F001F00
1F803F00
0FC07E00
07FFFC00
03FFF800
00FFE000
003F0000
ENDCHAR

STARTCHAR odieresis
ENCODING 246
SWIDTH 556 0
DWIDTH 28 0
BBX 26 37 1 -1
BITMAP
03E1F000
03E1F000
03E1F000
03E1F000
03E1F000
00000000
00000000
00000000
00000000
001F0000
01FFE000
03FFF000
07FFF800
0FC0FC00
1F003E00
1F003E00
3E001F00
3E000F00
3C000F00
3C000F80
7C000F80
7C000F80
7C000F80
7C000F80
7C000F80
7C000F80
3C000F00
3C000F00
3E000F00
3E001F00
1F003E00
1F803E00
0FC0FC00
07FFF800
03FFF000
01FFE000
003F0000
ENDCHAR

STARTCHAR divide
ENCODING 247
SWIDTH 584 0
DWIDTH 29 0
BBX 27 20 1 8
BITMAP
001F0000
001F0000
001F0000
001F0000
001F0000
00000000
00000000
00000000
3FFFFF80
3FFFFF80
3FFFFF80
3FFFFF80
00000000
00000000
00000000
001F0000
001F0000
001F0000
001F0000
001F0000
ENDCHAR

STARTCHAR oslash
ENCODING 248
SWIDTH 611 0
DWIDTH 31 0
BBX 27 29 2 -2
BITMAP
00000100
003F0380
00FFE780
03FFFF00
07FFFE00
0FC07E00
1F803F00
1F007F00
3E007F80
3E00FF80
3C01E780
3C03C7C0
7C0787C0
7C0707C0
7C0F07C0
7C1E07C0
7C3C07C0
7C7807C0
3C700780
3EF00F80
3FE00F80
1FC01F00
1F803F00
0FC07E00
0FFFFC00
1FFFF800
3CFFE000
381F8000
10000000
ENDCHAR

STARTCHAR ugrave
ENCODING 249
SWIDTH 556 0
DWIDTH 28 0
BBX 25 37 1 -1
BITMAP
01F80000
00F80000
00FC0000
007C0000
003E0000
001E0000
000E0000
00000000
00000000
00000000
3C001E00
3C001E00
3C001E00
3C001E00
3C001E00
3C001E00
3C001E00
3C001E00
3C001E00
3C001E00
3C001E00
3C001E00
3C001E00
3C001E00
3C001E00
3C001E00
3C001E00
3C001E00
3C003E00
3E003E00
3E007E00
3F00FE00
1F81FE00
1FFFDE00
0FFF9E00
03FF1E00
00FC0000
ENDCHAR

STARTCHAR uacute
ENCODING 250
SWIDTH 556 0
DWIDTH 28 0
BBX 25 37 1 -1
BITMAP
0007C000
000F8000
000F8000
001F0000
001E0000
003C0000
00380000
00000000
00000000
00000000
3C001E00
3C001E00
3C001E00
3C001E00
3C001E00
3C001E00
3C001E00
3C001E00
3C001E00
3C001E00
3C001E00
3C001E00
3C001E00
3C001E00
3C001E00
3C001E00
3C001E00
3C001E00
3C003E00
3E003E00
3E007E00
3F00FE00
1F81FE00
1FFFDE00
0FFF9E00
03FF1E00
00FC0000
ENDCHAR

STARTCHAR ucircumflex
ENCODING 251
SWIDTH 556 0
DWIDTH 28 0
BBX 25 37 1 -1
BITMAP
003E0000
007F0000
00FF8000
01F7C000
03E3E000
03E3E000
07C1F000
00000000
00000000
00000000
3C001E00
3C001E00
3C001E00
3C001E00
3C001E00
3C001E00
3C001E00
3C001E00
3C001E00
3C001E00
3C001E00
3C001E00
3C001E00
3C001E00
3C001E00
3C001E00
3C001E00
3C001E00
3C003E00
3E003E00
3E007E00
3F00FE00
1F81FE00
1FFFDE00
0FFF9E00
03FF1E00
00FC0000
ENDCHAR

STARTCHAR udieresis
ENCODING 252
SWIDTH 556 0
DWIDTH 28 0
BBX 24 37 2 -1
BITMAP
07C3E0
07C3E0
07C3E0
07C3E0
07C3E0
000000
000000
000000
000000
000000
3C003C
3C003C
3C003C
3C003C
3C003C
3C003C
3C003C
3C003C
3C003C
3C003C
3C003C
3C003C
3C003C
3C003C
3C003C
3C003C
3C003C
3C003C
3C007C
3E007C
3E007C
3F00FC
1F83FC
1FFFFC
0FFFBC
03FE3C
00F800
ENDCHAR

STARTCHAR dotlessi
ENCODING 253
SWIDTH 278 0
DWIDTH 14 0
BBX 8 26 3 0
BITMAP
3C
3C
3C
3C
3C
3C
3C
3C
3C
3C
3C
3C
3C
3C
3C
3C
3C
3C
3C
3C
3C
3C
3C
3C
3C
3C
ENDCHAR

STARTCHAR scedilla
ENCODING 254
SWIDTH 500 0
DWIDTH 25 0
BBX 24 36 1 -10
BITMAP
00FE00
03FFC0
0FFFE0
1FFFF0
1F01F8
3E00F8
3C007C
3C0078
3E0000
3F0000
1FE000
1FFE00
0FFFC0
03FFF0
007FF8
0007FC
0000FC
00007E
3C003E
7C003E
3C003E
3E007C
1F00FC
1FFFF8
0FFFF0
03FFC0
007F00
003800
003E00
003F00
000780
000780
000780
00FF80
00FF00
00FC00
ENDCHAR

STARTCHAR ydieresis
ENCODING 255
SWIDTH 500 0
DWIDTH 25 0
BBX 26 46 0 -10
BITMAP
03E1F000
03E1F000
03E1F000
03E1F000
03E1F000
00000000
00000000
00000000
00000000
00000000
7C000F80
3E000F00
3E000F00
1E001E00
1F001E00
1F003E00
0F003C00
0F803C00
0F807C00
07807800
07C07800
03C0F000
03C0F000
03E0F000
01E1E000
01F1E000
01F3E000
00F3C000
00FBC000
007B8000
007F8000
007F8000
003F0000
003F0000
001F0000
001E0000
001E0000
003C0000
003C0000
003C0000
00780000
00F80000
1FF00000
1FF00000
1FE00000
0F800000
ENDCHAR
ENDFONT
